<?xml version="1.0" encoding="utf-8"?>
<!-- Generator: Adobe Illustrator 25.0.0, SVG Export Plug-In . SVG Version: 6.00 Build 0)  -->
<svg version="1.1" id="Background_4_" xmlns="http://www.w3.org/2000/svg" xmlns:xlink="http://www.w3.org/1999/xlink" x="0px"
	 y="0px" viewBox="0 0 500 500" style="enable-background:new 0 0 500 500;" xml:space="preserve">
<style type="text/css">
	.st0{display:none;}
	.st1{display:inline;}
	.st2{fill:#C7294E;}
	.st3{fill:none;stroke:#5A2300;stroke-miterlimit:10;}
	.st4{fill:#5A2300;}
	.st5{fill:none;stroke:#5A2300;stroke-width:7;stroke-miterlimit:10;}
	.st6{fill:#5ABE5A;}
	.st7{fill:#D2B441;}
	.st8{fill:#B58F23;}
	.st9{fill:#8C4B23;}
	.st10{fill:#6E3723;}
	.st11{fill:#328741;}
	.st12{fill:#FFC85A;}
	.st13{fill:#B98250;}
	.st14{fill:#FFFFFF;}
	.st15{fill:#CD6928;}
	.st16{fill:#B94114;}
	.st17{fill:#FF9B32;}
	.st18{fill:#FFD764;}
	.st19{fill:#DEBD32;}
	.st20{fill:none;stroke:#4BAAFF;stroke-width:2;stroke-miterlimit:10;}
	.st21{fill:none;stroke:#4BAAFF;stroke-width:2;stroke-miterlimit:10;stroke-dasharray:4.9525,4.9525,4.9525,4.9525;}
	.st22{fill:none;stroke:#4BAAFF;stroke-width:2;stroke-miterlimit:10;stroke-dasharray:4.9525,4.9525,4.9525,4.9525,4.9525,4.9525;}
	.st23{fill:none;stroke:#4BAAFF;stroke-width:2;stroke-miterlimit:10;stroke-dasharray:4.7561,4.7561,4.7561,4.7561;}
	.st24{fill:none;stroke:#4BAAFF;stroke-width:2;stroke-miterlimit:10;stroke-dasharray:4.7561,4.7561,4.7561,4.7561,4.7561,4.7561;}
	.st25{fill:none;stroke:#4BAAFF;stroke-width:2;stroke-miterlimit:10;stroke-dasharray:4.901,4.901,4.901,4.901;}
	.st26{fill:none;stroke:#4BAAFF;stroke-width:2;stroke-miterlimit:10;stroke-dasharray:4.901,4.901,4.901,4.901,4.901,4.901;}
	.st27{fill:none;stroke:#4BAAFF;stroke-width:2;stroke-miterlimit:10;stroke-dasharray:5.0969,5.0969,5.0969,5.0969;}
	.st28{fill:none;stroke:#4BAAFF;stroke-width:2;stroke-miterlimit:10;stroke-dasharray:5.0969,5.0969,5.0969,5.0969,5.0969,5.0969;}
	.st29{fill:none;stroke:#4BAAFF;stroke-width:2;stroke-miterlimit:10;stroke-dasharray:4.9243,4.9243,4.9243,4.9243;}
	.st30{fill:none;stroke:#4BAAFF;stroke-width:2;stroke-miterlimit:10;stroke-dasharray:4.9243,4.9243,4.9243,4.9243,4.9243,4.9243;}
	.st31{fill:none;stroke:#4BAAFF;stroke-width:2;stroke-miterlimit:10;stroke-dasharray:4.9637,4.9637,4.9637,4.9637;}
	.st32{fill:none;stroke:#4BAAFF;stroke-width:2;stroke-miterlimit:10;stroke-dasharray:4.9637,4.9637,4.9637,4.9637,4.9637,4.9637;}
	.st33{fill:none;stroke:#4BAAFF;stroke-width:2;stroke-miterlimit:10;stroke-dasharray:4.9008,4.9008,4.9008,4.9008;}
	.st34{fill:none;stroke:#4BAAFF;stroke-width:2;stroke-miterlimit:10;stroke-dasharray:4.9008,4.9008,4.9008,4.9008,4.9008,4.9008;}
	.st35{fill:none;stroke:#4BAAFF;stroke-width:2;stroke-miterlimit:10;stroke-dasharray:5,5,5;}
	.st36{fill:#4BAAFF;}
</style>
<g id="Basic_10_">
	<g id="Sausage_4_">
		<path id="Fill_10_" class="st15" d="M468.56,178.39c-1.9-3.14-6.01-5.07-10.25-4.79c-3.43,0.22-7.08,1.73-10.85,4.48
			c-1.86,1.36-3.63,2.91-5.34,4.41c-1.22,1.07-2.48,2.18-3.78,3.22c-2.21,1.77-5.2,3.87-8.65,4.39c-5.37,0.79-11.17-2.33-15.52-8.36
			c-1.73-2.4-3.17-5.05-4.56-7.61c-1.41-2.61-2.88-5.3-4.66-7.75c-0.23-0.31-0.61-0.47-0.99-0.39l-8.01,1.47
			c-2.07-9.9,0.97-20.62,7.92-27.97c0.72-0.76,1.49-1.51,2.27-2.28c3.47-3.39,7.05-6.9,6.8-11.54c-0.17-3.23-2.45-6.36-5.81-7.98
			c-2.74-1.32-6.15-1.73-10.14-1.22c-7.28,0.94-14.28,4.59-19.2,10.03c-0.79,0.87-1.54,1.8-2.27,2.71c-1.16,1.44-2.36,2.93-3.74,4.2
			c-2.63,2.44-5.56,3.62-8.23,3.35c-4.07-0.42-6.58-3.68-9.24-7.14c-1.39-1.81-2.83-3.68-4.52-5.11
			c-6.37-5.39-16.26-3.92-22.74,0.32c-1.18,0.77-2.32,1.65-3.43,2.49c-1.4,1.07-2.84,2.17-4.39,3.09c-2.29,1.36-5.74,2.78-9.18,1.86
			c-2.78-0.74-4.88-2.84-6.92-4.88c-1.67-1.67-3.24-3.24-5.23-4.27c-3.81-1.97-8.95-1.64-14.09,0.92c-2.57,1.28-4.96,2.95-7.29,4.58
			c-1.62,1.14-3.3,2.31-5.03,3.34c-5.88,3.5-14.32,5.76-21.5,5.76c-7.18,0-15.62-2.26-21.5-5.76c-1.73-1.03-3.41-2.2-5.05-3.35
			c-2.31-1.62-4.71-3.29-7.28-4.57c-5.14-2.56-10.28-2.89-14.09-0.92c-1.99,1.03-3.56,2.6-5.23,4.27c-2.03,2.03-4.14,4.13-6.92,4.88
			c-3.44,0.92-6.89-0.51-9.18-1.86c-1.54-0.91-2.99-2.02-4.39-3.09c-1.11-0.84-2.25-1.72-3.43-2.49
			c-6.48-4.24-16.37-5.71-22.74-0.32c-1.68,1.43-3.12,3.3-4.52,5.11c-2.66,3.46-5.17,6.72-9.24,7.14c-2.68,0.27-5.6-0.91-8.23-3.35
			c-1.38-1.28-2.58-2.77-3.76-4.22c-0.72-0.9-1.47-1.82-2.26-2.69c-4.93-5.44-11.93-9.09-19.2-10.03c-3.99-0.51-7.4-0.1-10.14,1.22
			c-3.36,1.62-5.64,4.75-5.81,7.98c-0.25,4.64,3.34,8.15,6.81,11.54c0.78,0.76,1.55,1.51,2.26,2.27c6.96,7.35,9.99,18.06,7.92,27.97
			l-8.01-1.47c-0.38-0.07-0.76,0.08-0.99,0.39c-1.78,2.44-3.24,5.14-4.65,7.75c-1.39,2.56-2.83,5.21-4.56,7.61
			c-4.35,6.03-10.15,9.16-15.52,8.36c-3.45-0.51-6.43-2.61-8.65-4.39c-1.28-1.02-2.53-2.12-3.79-3.23c-1.71-1.5-3.47-3.05-5.33-4.41
			c-3.76-2.75-7.41-4.26-10.84-4.48c-4.24-0.28-8.36,1.65-10.25,4.79c-2.49,4.12-1,9.59,1.75,12.86c2.52,3,6.26,5.2,11.78,6.92
			c1.55,0.48,3.14,0.91,4.68,1.32c2.85,0.76,5.81,1.55,8.57,2.73c3.48,1.48,8.05,4.25,10.05,9.03c1.97,4.71,0.75,10.44-2.97,13.94
			c-0.83,0.79-1.81,1.49-2.76,2.18c-2.01,1.45-4.08,2.95-4.85,5.29c-1.17,3.58,1.4,7.33,3.97,9.46c5.66,4.69,13.78,6.1,20.69,3.6
			l18.05,106.85l0,0c-4.68,3.55-9.99,7.58-12.7,13.09c-2.51,5.12-2.27,12.52,3.15,16.16c2.03,1.36,4.39,1.93,6.8,1.93
			c3.45,0,6.99-1.17,9.75-2.84c3.64-2.21,6.59-5.29,9.45-8.27c1.01-1.05,2.05-2.14,3.11-3.18c4.64-4.53,9.95-8.41,15.79-11.52
			c2.36-1.26,5.41-2.56,8.15-1.53c2.65,1,3.67,3.51,4.74,6.18c0.54,1.34,1.1,2.73,1.89,3.9c3.18,4.72,10.32,5.67,15.42,4.17
			c5.45-1.6,9.87-5.44,13.84-9.35l0.45-0.44c1.88-1.86,3.83-3.78,6.22-5.07c2.92-1.58,6.12-1.88,8.57-0.81
			c1.06,0.46,1.97,1.17,2.89,1.88c0.47,0.36,0.95,0.73,1.44,1.06c5.69,3.78,13.69,2.49,19.26,0.02c1.28-0.56,2.69-1.33,4.32-2.21
			c6.2-3.35,14.7-7.93,27.03-7.93c12.32,0,20.82,4.58,27.02,7.93c1.63,0.88,3.04,1.64,4.33,2.21c5.58,2.47,13.57,3.76,19.26-0.02
			c0.5-0.33,0.97-0.69,1.48-1.08c0.89-0.68,1.8-1.39,2.86-1.85c2.45-1.07,5.65-0.76,8.57,0.81c2.4,1.3,4.35,3.22,6.23,5.08
			l0.44,0.44c3.97,3.91,8.4,7.74,13.84,9.34c5.1,1.5,12.25,0.55,15.42-4.17c0.79-1.17,1.35-2.56,1.89-3.91
			c1.08-2.66,2.09-5.18,4.74-6.17c2.74-1.03,5.79,0.28,8.15,1.53c5.84,3.11,11.15,6.98,15.79,11.52c1.07,1.04,2.1,2.13,3.11,3.18
			c2.86,2.98,5.81,6.06,9.45,8.27c4.68,2.84,11.62,4.23,16.55,0.91c5.41-3.64,5.66-11.04,3.15-16.16c-2.7-5.5-8.01-9.53-12.7-13.09
			l18.05-106.84c6.91,2.5,15.03,1.09,20.69-3.6c2.56-2.12,5.14-5.87,3.97-9.46c-0.77-2.34-2.84-3.84-4.85-5.29
			c-0.94-0.68-1.92-1.39-2.76-2.18c-3.72-3.5-4.94-9.23-2.97-13.94c2-4.78,6.57-7.55,10.05-9.03c2.76-1.18,5.71-1.96,8.58-2.73
			c1.54-0.41,3.12-0.83,4.67-1.31c5.52-1.72,9.26-3.92,11.79-6.92C469.56,187.97,471.05,182.5,468.56,178.39z"/>
		<g id="Shadow_10_">
			<path class="st16" d="M97.31,147.79c0.27,0.02,0.54,0.04,0.82,0.03c-0.07,0.33-0.12,0.67-0.15,1c0.98,1.45,2.09,2.78,3.55,3.78
				c0.7,0.48,1.14,1.09,1.38,1.74c0.6-0.09,1.16-0.3,1.69-0.58c0.31,0.61,0.82,1.15,1.57,1.56c1.93,1.05,3.81,0.15,5.44-0.95
				c1.02-0.69,2.49-1.94,4.01-2.99c0.94,1.51,2.22,2.87,3.27,3.88c2.35,2.27,5.58,0.3,5.95-2.16c1.87,0.85,3.78,1.49,5.72,1.89
				c0.44,0.26,0.87,0.51,1.31,0.76c-0.72,2.53,2.07,5.77,5.15,4.14c0.46-0.24,0.92-0.49,1.38-0.73c2.37,1,4.51-0.68,5.02-2.61
				c6.85-3.44,14.04-6.37,21.77-6.51c2.06-0.04,4.07,0.22,6.06,0.61c4.02,1.76,8.16,2.73,12.43,2.56c0.37,0.04,0.75,0.06,1.12,0.08
				c0.67,1.86,2.79,3.31,5.05,2.1c7.77-4.16,16.32-5.8,25.07-4.64c5.01,0.66,9.76,1.79,14.59,2.32c4.04,1.44,8.3,2.29,11.66-1.01
				c1.82-1.78,7.71-3.92,10.43-4.98c0.01,0.4-0.03,0.8-0.14,1.19c2.79,1.11,6.1,2.54,7.37,3.79c3.36,3.3,7.62,2.44,11.66,1.01
				c4.83-0.53,9.58-1.65,14.59-2.32c8.75-1.16,17.3,0.48,25.07,4.64c2.27,1.21,4.39-0.23,5.05-2.1c0.37-0.02,0.75-0.05,1.12-0.08
				c4.26,0.16,8.41-0.8,12.43-2.56c1.99-0.38,4.01-0.64,6.06-0.61c7.73,0.14,14.92,3.07,21.77,6.51c0.51,1.94,2.66,3.61,5.02,2.61
				c0.46,0.24,0.92,0.49,1.38,0.73c3.08,1.64,5.87-1.6,5.15-4.14c0.44-0.25,0.88-0.5,1.31-0.76c1.95-0.4,3.85-1.04,5.72-1.89
				c0.37,2.45,3.6,4.43,5.95,2.16c1.05-1.02,2.34-2.38,3.27-3.88c1.53,1.05,2.99,2.29,4.01,2.99c1.63,1.11,3.51,2,5.44,0.95
				c0.76-0.41,1.26-0.94,1.57-1.56c0.53,0.28,1.09,0.49,1.69,0.58c0.23-0.65,0.67-1.26,1.38-1.74c1.46-0.99,2.57-2.33,3.55-3.78
				c-0.03-0.34-0.08-0.67-0.15-1c0.28,0.01,0.55-0.01,0.82-0.03c0.63-1,1.22-2.03,1.84-3.01c1.5-2.38,3.3-4.49,5.22-6.51
				c-1.12-0.41-2.43-0.35-3.59,0.55c-2.35,1.83-4.28,1.34-6.14-0.57c-0.56-0.57-0.91-1.5-1.42-2.14c-1.05-1.3-2.22-2.31-3.78-2.92
				c-3.65-1.44-7.56-0.22-10.64,1.93c-3.22,2.25-6.05,4.99-9.06,7.5c-3.09,2.58-5.94,5.51-10.21,5.69c-3.74,0.15-7.4-1.5-10.4-3.64
				c-3.52-2.51-6.83-5.19-11.23-5.85c-5.6-0.84-10.75,1.56-15.88,3.46c-7.09,2.62-14.17,4.1-21.36,0.86
				c-4.38-1.98-8.37-4.33-13.29-4.81c-4.97-0.49-9.37,1.13-13.75,3.32c-2.43,1.21-4.8,2.5-7.32,3.5c-0.54,0.21-1.79,0.78-3.16,1.29
				c-4.86,1.64-12.16,1.15-16.83,0.6c1.27-0.5,1.79-0.75,0.75-0.58c-2.1,0.33-14.04,2.32-20.97-0.02c-1.36-0.51-2.62-1.08-3.16-1.29
				c-2.52-1-4.9-2.29-7.32-3.5c-4.38-2.18-8.78-3.81-13.75-3.32c-4.92,0.48-8.9,2.83-13.29,4.81c-7.19,3.24-14.27,1.76-21.36-0.86
				c-5.13-1.89-10.27-4.3-15.88-3.46c-4.4,0.66-7.71,3.35-11.23,5.85c-2.99,2.13-6.65,3.79-10.4,3.64
				c-4.27-0.18-7.12-3.11-10.21-5.69c-3.01-2.51-5.84-5.25-9.06-7.5c-3.08-2.15-6.98-3.36-10.64-1.93
				c-1.56,0.62-2.74,1.62-3.78,2.92c-0.51,0.64-0.86,1.56-1.42,2.14c-1.86,1.91-3.79,2.4-6.14,0.57c-1.16-0.9-2.47-0.96-3.59-0.55
				c1.92,2.02,3.72,4.13,5.22,6.51C96.09,145.76,96.69,146.79,97.31,147.79z"/>
			<path class="st16" d="M195.45,354.06c-5.71-4.83-15.09-4.44-23.6,5.15c-8.51,9.59-11.91,13.9-22.93,8.11l4.49,7.49
				c0,0,3.64,0.85,15.22-2.38c11.58-3.23,2.69-1.41,5.28-3.16s7.92-7.16,7.92-7.16s7.73-2.44,10.77-3.15
				C195.64,358.24,201.16,358.89,195.45,354.06z"/>
			<path class="st16" d="M113.29,366.39c-14.3,17.45-25.11,15.52-29.53,7.47l1.05,8.89c0,0,7.55,3.64,9.81,4.19
				s22.97-5.14,22.97-5.14l6.85-13.6c0,0,21.15-4.91,20.93-10.99C145.15,351.15,127.6,348.94,113.29,366.39z"/>
			<path class="st16" d="M81.49,208.72c0.1-0.52,0.22-1.03,0.32-1.55c0.39-1.92-0.68-3.36-2.08-4.01
				c-0.11-6.98-3.04-13.65-7.96-18.67c-0.23,0.03-0.45,0.06-0.68,0.09c-0.79,0.1-1.58,0.18-2.38,0.19
				c-1.04,0.02-1.93-0.45-2.55-1.16c-1.39,1.21-1.94,3.34-0.21,4.96c8.08,7.57,7.74,17.12,3.86,26.72
				c-3.32,8.23-7.08,16.72-3.62,25.57c1.04,2.65,4.17,2.86,5.87,1.58c0.89-0.15,1.74-0.65,2.34-1.62c5.57-8.91,8.4-18.94,8.39-29.44
				C82.77,210.16,82.24,209.28,81.49,208.72z"/>
			<path class="st16" d="M250,340.09c-14.15,0-26.18,7.99-38.12,20.76s20.28-6.82,20.28-6.82l8.21-2.49l9.63-0.99l9.63,0.99
				l8.21,2.49c0,0,32.22,19.59,20.28,6.82S264.15,340.09,250,340.09z"/>
			<path class="st16" d="M328.15,359.21c-8.51-9.59-17.89-9.98-23.6-5.15c-5.71,4.83-0.19,4.18,2.85,4.89
				c3.04,0.71,10.77,3.15,10.77,3.15s5.33,5.41,7.92,7.16s-6.3-0.07,5.28,3.16c11.58,3.23,15.22,2.38,15.22,2.38l4.49-7.49
				C340.06,373.11,336.66,368.8,328.15,359.21z"/>
			<path class="st16" d="M386.71,366.39c-14.3-17.45-31.86-15.24-32.08-9.16c-0.22,6.08,20.93,10.99,20.93,10.99l6.85,13.6
				c0,0,20.71,5.69,22.97,5.14s9.81-4.19,9.81-4.19l1.05-8.89C411.82,381.9,401.01,383.84,386.71,366.39z"/>
			<path class="st16" d="M442.29,231.17c-1.67-1.33-2.84-3.08-4.26-4.65c-1.36-1.5-2.95-2.64-4.81-3.39
				c-0.89-2.64-1.98-5.25-3.02-7.84c-3.88-9.6-4.23-19.15,3.86-26.72c1.73-1.62,1.18-3.75-0.21-4.96c-0.63,0.71-1.51,1.18-2.55,1.16
				c-0.8-0.01-1.59-0.09-2.38-0.19c-0.23-0.03-0.45-0.06-0.68-0.09c-4.92,5.02-7.86,11.69-7.96,18.67c-1.4,0.65-2.47,2.09-2.08,4.01
				c0.1,0.52,0.22,1.03,0.32,1.55c-0.76,0.56-1.29,1.44-1.29,2.67c-0.01,8.19,1.72,16.09,5.12,23.4c0.13-0.03,0.26-0.06,0.4-0.08
				c4.43-0.47,8.42,0.17,12.3,1.33c0.09-0.69,0.12-1.39,0.14-2.08c0.66,0.77,1.35,1.51,2.16,2.16c1.48,1.18,3.51,1.44,4.95,0
				C443.51,234.9,443.78,232.36,442.29,231.17z"/>
		</g>
		<g id="Shine_10_">
			<path class="st17" d="M49.99,169.32c-10-0.18-19.02,5.83-22.74,14.79c1.49,5.73,5.32,9.98,9.7,13.81c0-0.46-0.05-0.94-0.17-1.44
				c-2.59-10.76,8.14-20,18.34-15.06c2.11,1.02,4.13,0.65,5.66-0.4C56.32,178.2,52.56,173.76,49.99,169.32z"/>
			<path class="st17" d="M450.01,169.32c-2.57,4.43-6.34,8.88-10.78,11.7c1.53,1.06,3.55,1.43,5.66,0.4
				c10.2-4.95,20.93,4.29,18.34,15.06c-0.12,0.5-0.17,0.98-0.17,1.44c4.38-3.83,8.21-8.08,9.7-13.81
				C469.03,175.15,460.01,169.14,450.01,169.32z"/>
			<path class="st17" d="M94.71,353.59c-1.88,1.17-3.49,2.65-4.83,4.34c-1.28-0.6-2.97-0.5-4.03,0.94
				c-3.24,4.37-4.96,13.26,1.38,15.94c6.35,2.68,11.88-6.69,13.98-11.39c1.15-2.57,2.34-6.03,0.84-8.71
				C100.44,351.81,97.21,352.04,94.71,353.59z"/>
			<path class="st17" d="M414.15,358.86c-1.06-1.43-2.75-1.54-4.03-0.94c-1.34-1.69-2.95-3.17-4.83-4.34
				c-2.5-1.55-5.73-1.77-7.34,1.11c-1.5,2.68-0.31,6.13,0.84,8.71c2.1,4.7,7.64,14.07,13.98,11.39
				C419.11,372.12,417.38,363.23,414.15,358.86z"/>
			<path class="st17" d="M115.63,116.75c-2.21-1.93-5.05-2.78-7.91-3.15c-3.03-0.4-6.12-0.4-9.13,0.15
				c-5.8,1.08-11.33,4.91-12.87,10.79c-0.43,0.07-0.8,0.37-0.79,0.93c0.06,2.26,0.76,5.44,3.68,5.36c1.21-0.03,1.97-0.89,2.61-1.81
				c0.85-1.22,1.82-2.3,3.04-3.16c2.49-1.74,5.52-2.46,8.53-2.03c3.19,0.45,6.17,1.8,9.36,2.23c2.34,0.31,5.57,0.24,6.28-2.58
				C119.05,121.01,117.42,118.31,115.63,116.75z"/>
			<path class="st17" d="M180.22,122.07c-4.3-4.03-10.42-5.68-16.1-5.15c-6.41,0.59-12.53,4.22-14.77,10.81c0,0,0,0.01,0,0.01
				c-1.09,1.86,0,4.39,2.03,5.08c2.94,1,5.28-1.3,7.44-2.99c5.94-4.65,12.18,2.13,18.21,2.96c2.57,0.35,5.76-0.48,6.49-3.47
				C184.22,126.49,182.08,123.8,180.22,122.07z"/>
			<path class="st17" d="M217.67,123.6c-0.05-0.05-0.11-0.06-0.16-0.1c-0.03-0.17-0.09-0.34-0.22-0.49
				c-2.71-3.39-6.56-5.73-10.77-6.58c-0.34,0.22-0.74,0.39-1.23,0.48c-5.83,1.07-10.91,4.29-15.14,8.29
				c-0.32,0.31-0.66,0.51-1.01,0.67c0.45,3.19,3.79,5.47,7.35,5c2.64-0.34,4.53-1.88,6.65-3.33c1.35-0.92,2.62-1.38,4.25-0.83
				c1.33,0.45,2.47,1.31,3.72,1.93c1.92,0.95,4.47,1.49,6.27-0.02C218.87,127.36,219.15,124.97,217.67,123.6z"/>
			<path class="st17" d="M282.33,123.6c0.05-0.05,0.11-0.06,0.16-0.1c0.03-0.17,0.09-0.34,0.22-0.49c2.71-3.39,6.56-5.73,10.77-6.58
				c0.34,0.22,0.74,0.39,1.23,0.48c5.83,1.07,10.91,4.29,15.14,8.29c0.32,0.31,0.66,0.51,1.01,0.67c-0.45,3.19-3.79,5.47-7.35,5
				c-2.64-0.34-4.53-1.88-6.65-3.33c-1.35-0.92-2.62-1.38-4.25-0.83c-1.33,0.45-2.47,1.31-3.72,1.93c-1.92,0.95-4.47,1.49-6.27-0.02
				C281.13,127.36,280.85,124.97,282.33,123.6z"/>
			<path class="st17" d="M214.55,360.27c0.16-0.56-0.14-1.32-0.9-1.41c-2.39-0.29-4.68-1.21-6.64-2.61
				c-0.97-0.69-1.81-1.53-2.59-2.42c-0.72-0.82-1.45-1.67-2.4-2.24c-2-1.2-4.49-0.52-5.72,1.43c-1.25,1.97-0.61,4.47,0.9,6.09
				c-0.3,0.44-0.31,1.06,0.29,1.38c2.95,1.56,6.13,2.53,9.45,2.88c2.92,0.31,6.56,0.44,8.9-1.61
				C216.76,360.95,215.51,359.65,214.55,360.27z"/>
			<path class="st17" d="M158.36,371.62c-2.44-0.77-3.09-3.61-3.25-5.85c-0.19-2.69-0.01-5.53-1.35-7.97
				c-1.08-1.96-3.31-3.51-5.62-3.05c-2.14,0.42-3.77,2.68-3.13,4.83c0.03,0.11,0.09,0.2,0.15,0.28c0.73,6.82,5.77,12.59,12.57,14.05
				c0.68,0.15,1.14-0.36,1.22-0.89C159.17,372.51,159.04,371.83,158.36,371.62z"/>
			<path class="st17" d="M414.28,124.54c-1.54-5.88-7.07-9.71-12.87-10.79c-3.01-0.56-6.1-0.55-9.13-0.15
				c-2.87,0.37-5.7,1.22-7.91,3.15c-1.79,1.56-3.42,4.27-2.8,6.73c0.71,2.82,3.93,2.89,6.28,2.58c3.19-0.42,6.18-1.77,9.36-2.23
				c3.01-0.43,6.04,0.29,8.53,2.03c1.23,0.86,2.19,1.94,3.04,3.16c0.64,0.92,1.4,1.78,2.61,1.81c2.91,0.08,3.62-3.09,3.68-5.36
				C415.09,124.91,414.71,124.61,414.28,124.54z"/>
			<path class="st17" d="M350.65,127.72c-2.24-6.59-8.36-10.21-14.77-10.81c-5.68-0.53-11.79,1.12-16.1,5.15
				c-1.85,1.74-4,4.43-3.31,7.25c0.73,2.99,3.92,3.82,6.49,3.47c6.04-0.83,12.27-7.6,18.21-2.96c2.16,1.69,4.51,3.99,7.44,2.99
				C350.65,132.12,351.74,129.6,350.65,127.72C350.65,127.73,350.65,127.73,350.65,127.72z"/>
			<path class="st17" d="M303.7,353.02c-1.24-1.95-3.72-2.63-5.72-1.43c-0.95,0.57-1.68,1.42-2.4,2.24
				c-0.78,0.89-1.62,1.73-2.59,2.42c-1.96,1.4-4.25,2.33-6.64,2.61c-0.76,0.09-1.06,0.85-0.9,1.41c-0.96-0.63-2.21,0.68-1.28,1.49
				c2.34,2.05,5.98,1.92,8.9,1.61c3.31-0.35,6.5-1.33,9.45-2.88c0.6-0.32,0.59-0.94,0.29-1.38
				C304.31,357.49,304.95,354.99,303.7,353.02z"/>
			<path class="st17" d="M351.86,354.75c-2.31-0.46-4.54,1.09-5.62,3.05c-1.35,2.44-1.16,5.28-1.35,7.97
				c-0.16,2.24-0.82,5.08-3.25,5.85c-0.68,0.21-0.81,0.89-0.59,1.4c0.08,0.53,0.54,1.04,1.22,0.89c6.8-1.46,11.84-7.22,12.57-14.05
				c0.06-0.08,0.12-0.17,0.15-0.28C355.63,357.43,354.01,355.18,351.86,354.75z"/>
		</g>
		<g id="Stroke_10_">
			<path class="st4" d="M474.55,174.77c-3.05-5.06-8.97-8.2-15.44-8.2c-0.42,0-0.84,0.01-1.25,0.04c-4.79,0.31-9.67,2.27-14.53,5.82
				c-2.11,1.55-4,3.2-5.82,4.8c-1.22,1.07-2.37,2.08-3.54,3.02c-1.41,1.13-3.49,2.66-5.3,2.93c-0.21,0.03-0.43,0.05-0.64,0.05
				c-2.86,0-6.17-2.8-8.17-5.58c-1.47-2.04-2.74-4.38-4.08-6.86c-1.64-3.02-3.34-6.15-5.61-9.15l-1.49-1.96l-1.12-1.47l-1.82,0.33
				l-2.42,0.44l-0.91,0.17c0.47-5.52,2.81-10.89,6.56-14.85c0.63-0.66,1.33-1.35,2.08-2.09c3.93-3.85,9.31-9.11,8.9-16.92
				c-0.31-5.74-4.14-11.2-9.76-13.91c-2.93-1.41-6.28-2.12-9.97-2.12c-1.31,0-2.69,0.09-4.1,0.27c-8.91,1.14-17.47,5.62-23.5,12.27
				c-0.92,1.02-1.74,2.03-2.53,3c-1.05,1.3-2.05,2.53-3.06,3.47c-1.3,1.21-2.34,1.53-2.71,1.53c-0.02,0-0.04,0-0.06,0
				c-1.07-0.11-3-2.62-4.41-4.45c-1.62-2.1-3.29-4.27-5.54-6.18c-3.98-3.37-9.09-5.15-14.77-5.15c-5.63,0-11.43,1.76-16.32,4.96
				c-1.4,0.91-2.64,1.87-3.85,2.79c-1.3,0.99-2.52,1.93-3.71,2.63c-1.26,0.75-2.48,1.17-3.36,1.17c-0.17,0-0.32-0.02-0.45-0.05
				c-0.97-0.26-2.33-1.62-3.78-3.07c-1.79-1.78-4.01-4-6.96-5.53c-2.64-1.37-5.58-2.06-8.76-2.06c-3.79,0-7.83,1.01-11.67,2.92
				c-3.04,1.51-5.65,3.34-8.17,5.1c-1.6,1.12-3.1,2.17-4.62,3.07c-5.51,3.28-13.15,4.77-17.92,4.77c-4.76,0-12.4-1.49-17.92-4.77
				c-1.51-0.9-3.02-1.95-4.61-3.07c-2.53-1.77-5.14-3.6-8.18-5.1c-3.85-1.91-7.88-2.92-11.67-2.92c-3.17,0-6.12,0.69-8.76,2.06
				c-2.95,1.53-5.17,3.75-6.96,5.53c-1.45,1.44-2.81,2.81-3.78,3.07c-0.13,0.03-0.28,0.05-0.45,0.05c-0.87,0-2.1-0.43-3.36-1.17
				c-1.19-0.7-2.41-1.64-3.71-2.63c-1.21-0.92-2.45-1.87-3.85-2.79c-4.89-3.2-10.69-4.96-16.32-4.96c-5.68,0-10.79,1.78-14.77,5.15
				c-2.25,1.91-3.93,4.08-5.54,6.18c-1.41,1.83-3.34,4.34-4.41,4.45c-0.02,0-0.04,0-0.06,0c-0.37,0-1.4-0.32-2.71-1.53
				c-1.01-0.93-2-2.16-3.06-3.47c-0.79-0.97-1.6-1.98-2.53-3c-6.03-6.66-14.59-11.13-23.5-12.27c-1.4-0.18-2.78-0.27-4.1-0.27
				c-3.69,0-7.05,0.71-9.97,2.12c-5.62,2.71-9.45,8.17-9.76,13.91c-0.42,7.8,4.97,13.07,8.9,16.92c0.75,0.73,1.45,1.42,2.08,2.09
				c3.75,3.96,6.09,9.33,6.56,14.85l-0.91-0.17l-2.42-0.44l-1.82-0.33l-1.12,1.47l-1.49,1.96c-2.27,2.99-3.97,6.12-5.61,9.15
				c-1.34,2.48-2.61,4.82-4.08,6.86c-2,2.78-5.31,5.58-8.17,5.58c-0.22,0-0.43-0.02-0.64-0.05c-1.81-0.27-3.9-1.8-5.3-2.93
				c-1.17-0.93-2.31-1.94-3.53-3.01c-1.83-1.61-3.71-3.26-5.83-4.81c-4.86-3.55-9.74-5.51-14.53-5.82
				c-0.41-0.03-0.83-0.04-1.25-0.04c-6.47,0-12.39,3.14-15.44,8.2c-3.75,6.22-2.78,14.84,2.38,20.98c3.42,4.07,8.21,6.97,15.06,9.1
				c1.68,0.52,3.34,0.97,4.94,1.4c2.75,0.73,5.34,1.42,7.64,2.41c1.51,0.64,5.14,2.44,6.34,5.29c0.81,1.94,0.23,4.7-1.31,6.14
				c-0.51,0.48-1.26,1.03-2.06,1.6c-2.5,1.81-5.92,4.28-7.39,8.78c-2.27,6.92,1.69,13.33,6.15,17.03c5,4.14,11.43,6.43,18.11,6.43
				c0.44,0,0.89-0.01,1.33-0.03l16.17,95.69c-4.43,3.54-8.74,7.59-11.38,12.97c-3.82,7.78-3.18,19.2,5.52,25.05
				c3.03,2.04,6.74,3.12,10.72,3.12c4.52,0,9.27-1.37,13.36-3.86c4.42-2.69,7.7-6.11,10.87-9.41c1.02-1.06,1.97-2.06,2.95-3.01
				c4.16-4.07,8.94-7.55,14.19-10.34c1.09-0.58,1.79-0.85,2.21-0.97c0.29,0.58,0.66,1.5,0.89,2.06c0.61,1.52,1.38,3.41,2.58,5.19
				c3.35,4.97,9.5,7.94,16.46,7.94c2.31,0,4.58-0.32,6.75-0.96c6.92-2.04,12.15-6.52,16.78-11.07l0.45-0.45
				c1.61-1.59,3.12-3.08,4.64-3.91c0.7-0.38,1.46-0.6,2.07-0.6c0.27,0,0.37,0.05,0.37,0.05c0.26,0.11,0.88,0.59,1.38,0.98
				c0.55,0.42,1.17,0.9,1.88,1.37c3.57,2.37,7.79,3.57,12.57,3.57c4.37,0,9-1.03,13.4-2.97c1.53-0.67,3.12-1.54,4.81-2.45
				c5.55-3,13.15-7.1,23.71-7.1s18.15,4.1,23.7,7.09c1.7,0.92,3.29,1.78,4.82,2.45c4.4,1.95,9.03,2.97,13.4,2.97
				c4.78,0,9-1.2,12.57-3.57c0.72-0.48,1.33-0.95,1.88-1.37c0.5-0.38,1.12-0.86,1.38-0.98c0,0,0.11-0.05,0.37-0.05
				c0.61,0,1.36,0.22,2.07,0.6c1.52,0.82,3.04,2.32,4.64,3.9l0.45,0.44c4.62,4.55,9.85,9.03,16.78,11.07
				c2.17,0.64,4.44,0.96,6.75,0.96c6.96,0,13.11-2.97,16.46-7.94c1.2-1.78,1.96-3.67,2.58-5.2c0.23-0.56,0.6-1.48,0.89-2.06
				c0.42,0.12,1.12,0.39,2.21,0.98c5.25,2.8,10.02,6.28,14.19,10.34c0.98,0.96,1.94,1.96,2.95,3.01c3.17,3.31,6.45,6.73,10.87,9.41
				c4.1,2.49,8.84,3.86,13.36,3.86c3.98,0,7.69-1.08,10.72-3.12c8.71-5.85,9.34-17.28,5.52-25.05c-2.64-5.38-6.94-9.44-11.38-12.97
				l16.17-95.69c0.44,0.02,0.89,0.03,1.33,0.03c6.68,0,13.11-2.28,18.11-6.43c4.46-3.7,8.42-10.11,6.15-17.03
				c-1.47-4.49-4.9-6.97-7.39-8.78c-0.8-0.58-1.55-1.13-2.06-1.6c-1.53-1.44-2.12-4.2-1.31-6.14c1.19-2.85,4.83-4.65,6.34-5.29
				c2.3-0.98,4.89-1.67,7.63-2.4c1.61-0.43,3.27-0.87,4.95-1.4c6.86-2.14,11.64-5.03,15.06-9.1
				C477.33,189.61,478.31,180.98,474.55,174.77z M454.73,197.22c-1.52,0.48-3.11,0.9-4.64,1.31c-2.89,0.77-5.88,1.57-8.7,2.77
				c-3.65,1.56-8.45,4.48-10.58,9.57c-2.13,5.09-0.81,11.28,3.2,15.06c0.88,0.83,1.89,1.56,2.86,2.26c1.96,1.42,3.82,2.76,4.48,4.79
				c1.02,3.1-1.33,6.45-3.65,8.38c-5.39,4.47-13.13,5.81-19.72,3.43l-1.13-0.41L398.6,352.4l-0.1,0.6l0.48,0.37
				c4.6,3.49,9.8,7.44,12.4,12.73c2.33,4.74,2.14,11.57-2.81,14.89c-4.57,3.07-11.06,1.74-15.47-0.94
				c-3.53-2.14-6.44-5.18-9.25-8.11c-1.01-1.06-2.06-2.15-3.13-3.2c-4.71-4.6-10.1-8.53-16.02-11.68c-2.54-1.35-5.86-2.76-8.97-1.58
				c-3.06,1.15-4.21,3.99-5.32,6.74c-0.52,1.3-1.06,2.64-1.8,3.72c-2.91,4.33-9.55,5.17-14.31,3.77c-5.24-1.54-9.55-5.28-13.42-9.1
				l-0.44-0.44c-1.93-1.91-3.94-3.88-6.46-5.25c-3.18-1.72-6.71-2.04-9.44-0.85c-1.17,0.51-2.14,1.26-3.07,1.98
				c-0.46,0.36-0.93,0.72-1.42,1.04c-5.36,3.56-12.97,2.3-18.31-0.06c-1.24-0.55-2.64-1.3-4.25-2.18c-6.3-3.4-14.92-8.05-27.5-8.05
				c-12.58,0-21.2,4.65-27.5,8.05c-1.62,0.87-3.01,1.63-4.25,2.17c-5.34,2.36-12.95,3.62-18.31,0.06c-0.49-0.32-0.95-0.68-1.42-1.04
				c-0.93-0.72-1.9-1.47-3.07-1.98c-2.73-1.19-6.26-0.87-9.44,0.85c-2.52,1.36-4.52,3.34-6.45,5.24l-0.45,0.44
				c-3.88,3.81-8.19,7.56-13.42,9.1c-4.76,1.4-11.4,0.56-14.31-3.77c-0.73-1.09-1.27-2.43-1.8-3.72c-1.11-2.74-2.25-5.58-5.32-6.74
				c-3.11-1.17-6.43,0.23-8.97,1.58c-5.92,3.15-11.31,7.08-16.02,11.68c-1.07,1.05-2.12,2.14-3.13,3.2
				c-2.81,2.94-5.72,5.97-9.25,8.11c-4.41,2.68-10.91,4.01-15.47,0.94c-4.94-3.32-5.13-10.15-2.81-14.89
				c2.6-5.29,7.81-9.24,12.4-12.73l0.48-0.37L83.14,244.37l-1.13,0.41c-6.59,2.38-14.32,1.03-19.72-3.43
				c-2.32-1.92-4.67-5.27-3.65-8.38c0.67-2.03,2.52-3.37,4.48-4.79c0.97-0.7,1.97-1.43,2.86-2.26c4.01-3.78,5.33-9.97,3.2-15.06
				c-2.13-5.09-6.93-8.01-10.58-9.57c-2.83-1.2-5.81-2-8.7-2.77c-1.53-0.41-3.11-0.83-4.64-1.31c-5.33-1.66-8.93-3.76-11.32-6.61
				c-2.52-3-3.9-7.99-1.66-11.7c1.71-2.83,5.45-4.56,9.33-4.31c3.24,0.21,6.71,1.65,10.32,4.29c1.83,1.34,3.57,2.87,5.26,4.36
				c1.23,1.08,2.51,2.2,3.82,3.25c2.31,1.85,5.44,4.05,9.13,4.59c5.74,0.85,11.9-2.42,16.48-8.77c1.77-2.45,3.22-5.13,4.63-7.72
				c1.4-2.58,2.84-5.25,4.58-7.63l8.97,1.65l0.2-0.96c2.14-10.22-1-21.28-8.18-28.86c-0.73-0.77-1.51-1.53-2.3-2.3
				c-3.31-3.24-6.73-6.58-6.5-10.77c0.15-2.87,2.21-5.67,5.24-7.13c2.56-1.23,5.78-1.61,9.58-1.12c7.05,0.91,13.82,4.44,18.59,9.71
				c0.77,0.85,1.51,1.77,2.23,2.66c1.19,1.47,2.41,2.98,3.84,4.31c2.84,2.63,6.05,3.92,9.01,3.61c4.5-0.46,7.26-4.05,9.93-7.53
				c1.36-1.77,2.77-3.6,4.37-4.95c5.99-5.07,15.37-3.64,21.54,0.4c1.15,0.75,2.28,1.62,3.37,2.45c1.42,1.09,2.9,2.21,4.49,3.16
				c2.45,1.45,6.17,2.98,9.95,1.97c3.04-0.81,5.24-3.01,7.37-5.13c1.61-1.61,3.13-3.13,4.98-4.09c3.53-1.83,8.33-1.49,13.19,0.92
				c2.5,1.24,4.86,2.9,7.15,4.49c1.64,1.15,3.34,2.34,5.11,3.39c6.02,3.58,14.66,5.9,22.01,5.9c7.35,0,15.98-2.32,22.01-5.9
				c1.77-1.05,3.47-2.24,5.11-3.39c2.29-1.6,4.65-3.25,7.15-4.49c4.85-2.41,9.66-2.75,13.19-0.92c1.85,0.96,3.37,2.48,4.98,4.09
				c2.13,2.12,4.33,4.32,7.37,5.13c3.77,1.01,7.49-0.52,9.95-1.97c1.59-0.94,3.07-2.07,4.49-3.16c1.09-0.83,2.22-1.7,3.38-2.45
				c6.17-4.04,15.55-5.47,21.54-0.4c1.6,1.36,3.01,3.19,4.37,4.95c2.67,3.47,5.43,7.07,9.93,7.53c2.98,0.31,6.17-0.98,9.01-3.61
				c1.43-1.33,2.66-2.84,3.84-4.31c0.72-0.89,1.46-1.81,2.23-2.66c4.77-5.27,11.54-8.8,18.59-9.71c3.79-0.49,7.01-0.11,9.58,1.12
				c3.03,1.46,5.09,4.26,5.24,7.13c0.22,4.19-3.2,7.53-6.5,10.77c-0.79,0.77-1.57,1.54-2.3,2.3c-7.18,7.58-10.31,18.64-8.18,28.86
				l0.2,0.96l8.97-1.65c1.74,2.39,3.18,5.05,4.58,7.63c1.4,2.59,2.86,5.27,4.62,7.72c4.57,6.34,10.73,9.62,16.48,8.77
				c3.68-0.55,6.81-2.74,9.13-4.59c1.31-1.05,2.59-2.17,3.82-3.25c1.69-1.48,3.44-3.02,5.27-4.36c3.61-2.64,7.08-4.08,10.32-4.29
				c3.86-0.25,7.62,1.48,9.33,4.31c2.24,3.71,0.87,8.7-1.66,11.7C463.66,193.46,460.06,195.56,454.73,197.22z"/>
		</g>
	</g>
	<g id="Letter_4_">
		<path id="Outline_5_" class="st4" d="M447.16,238c-4.48-4.93-11.07-7.75-18.07-7.75c-3.43,0-6.87,0.64-10.29,1.92
			c3.8-8.15,6.11-17.73,6.76-28.15c0.81-12.99-1.8-25.33-7.34-34.74c-6.15-10.45-15.41-16.68-26.07-17.54
			c-6.75-0.55-13.12,1.29-18.67,5.34c-1.77-4.83-7.24-6.62-13.18-8.13c-3.19-0.81-9.71-2.25-17.48-2.73
			c-6.96-0.44-14.87-0.11-21.17,0.88c-5.53,0.86-11.08,2.16-12.98,7.58c-0.2,0.58-0.39,1.23-0.55,1.92
			c-10.47-8.39-22.69-9.38-27.83-9.38c-5.58,0-10.5,0.97-14.38,2.83c-2.61-2.34-6.43-3.48-11.6-3.48c-5.37,0-14.77,1.03-17.33,7.94
			c-0.24,0.64-0.93,2.73-3.82,12.03c-1.06-4.6-1.73-7.59-2-8.94c-1.34-6.71-7.73-10.71-17.08-10.71c-3.38,0-11.67,0.6-15.84,6.11
			c-6.76-4.25-15.52-6.48-25.54-6.48c-1.1,0-24.53,0.13-29.65,10.75c-6.62-5.01-15.14-7.82-23.98-7.82c-5.89,0-11.91,1.2-17.9,3.56
			c-11.92,4.71-20.67,14.8-24.64,28.4c-5,17.12-1.56,36.8,8.98,51.38c0.3,0.41,0.6,0.81,0.91,1.21c-11.01,0.52-19.8,4.36-24.22,6.72
			c-5.36,2.85-14.35,8.85-14.36,16.91c-0.02,12.19,14.84,81.5,18.18,89.98c3.44,8.73,12.77,13.74,25.61,13.74
			c9.74,0,20.21-2.96,28.73-8.11c9.31-5.63,15.64-13.31,18.47-22.36c6.5,6.35,14.92,9.34,24.45,8.59
			c8.96-0.71,16.89-5.1,22.58-12.34c0.3,3.37,0.52,4.06,0.73,4.7c2.53,7.85,12.58,8.46,15.6,8.46c7.4,0,13.05-2.83,15.5-7.42
			c0.97,1.48,3.56,4.43,8.73,4.43c5.31,0,12.56-3.29,16.17-7.34c0.51-0.57,0.95-1.16,1.34-1.76c5.29,6.54,12.78,10.65,21.95,11.99
			c11.8,1.72,21.77-1.58,28.33-9.27c0.51-0.6,1-1.23,1.47-1.88c1.3,3.45,2.57,4.79,3.36,5.62c3.82,4.02,9.52,6.14,16.47,6.14
			c5.39,0,13.18-1.55,18.89-4.92c3.89,4.52,10.92,6.22,15.24,6.22c4.82,0,7.91-1.62,9.86-3.44c2.36,3.35,6.55,5.25,11.7,5.25
			c2.8,0,5.62-0.56,8.09-1.58c3.05,8.16,10.57,14.27,22.41,18.19c3.73,1.24,7.55,1.87,11.35,1.87c10.06,0,19.86-4.5,26.89-12.35
			c7.01-7.83,10.42-17.83,9.36-27.45c-1.29-11.64-6.44-20.53-10.99-28.38c-4.03-6.96-7.22-12.46-6.24-17.39
			c1.23-6.18,3.22-7.11,7.18-8.97c0,0,0,0,0,0c4.42-2.07,11.81-5.54,12.86-16.6c0,0,0,0,0,0C452.54,246.75,450.73,241.92,447.16,238
			z"/>
		<g id="Fill_9_">
			<path class="st18" d="M200.14,235.63c0-3.24-4.63-20.16-6.53-26.96c10.75-10.82,14.94-26.92,7.72-40.53
				c-10.71-20.19-50.38-12.59-50.76-6.62c-1.27,20.08,3.8,78.45,5.49,81.01c1.68,2.55,15.18,0.82,15.84-1.89
				c0.22-0.89,0.3-9.42,0.3-20.45c2.14-0.43,4.22-1.02,6.21-1.76c2.19,8.11,4.91,21.32,7.12,23.67
				C187.87,244.58,200.14,239.72,200.14,235.63z M185.24,186.19c-1.22,8.26-8.03,12.47-13.1,14.27
				c-0.05-10.82-0.12-21.36-0.18-28.06C180.33,171.92,186.79,175.66,185.24,186.19z"/>
			<path class="st18" d="M242.62,220.66c-0.31-2.85-0.03-5.72,0.83-8.46c4.09-13.08,16.48-50.22,17.37-54.12
				c1.05-4.62-14.92-3.17-15.87-0.61c-0.79,2.12-9.1,29.18-11.94,38.42c-0.26,0.85-1.48,0.81-1.68-0.06
				c-2.02-8.5-7.53-31.7-8.5-36.57c-1.2-5.99-19.7-4.48-18.18,0.75c1.18,4.09,9.78,35.83,14.92,51.85c0.88,2.76,1.26,5.65,1.1,8.54
				c-0.36,6.27-0.43,14.18,0.93,18.89c1.32,4.56,21.7,6,22.22,0.67C244.17,236.24,243.22,226.3,242.62,220.66z"/>
			<path class="st18" d="M260.2,238.34c0.46,7.08,15,7.17,17.82,1.62c0.77-1.5,1.73-7.62,2.73-15.76
				c24.21-1.99,41.01-29.02,30.26-50.78c-11.26-22.81-44.39-19.92-45.31-11.54C264.56,172.19,259.73,231.27,260.2,238.34z
				 M285.73,173.36c8.2,2.27,12.22,9.7,11.82,16.28c-0.44,7.39-6.4,12.9-14.52,13.33C284.14,191.73,285.12,180.5,285.73,173.36z"/>
			<path class="st18" d="M328.95,176.78c-0.84,7.92-3.51,34.78-4.48,62.51c-0.16,4.72,18.81,6.25,19.66,1.46
				c4.48-25.04,6.47-50.56,7.19-61.89c2.86-0.28,6.08-0.76,9.45-1.54c3.66-0.85,5.2-14.81,4.77-17.18
				c-0.25-1.36-11.56-4.72-23.24-5.44c-12.31-0.77-25.03,1.17-25.59,2.77c-1.89,5.48-1.19,15.77,0.85,17.59
				C318.5,175.89,323.66,176.44,328.95,176.78z"/>
			<path class="st18" d="M146.83,225.57c5.57-11.9-1.05-18.8-7.53-18.9c-5.99-0.09-8.36,6.96-14.45,10.71
				c-5.38,3.32-18.32,3.4-18.67-17.76c-0.32-19,11.8-23.14,18.51-14.46c8.18,10.59,23.66-0.72,20.29-12
				c-2.62-8.77-18.82-20.89-40.68-12.25c-23.64,9.34-28.08,44.52-11.9,66.89C108.79,250.46,139.67,240.88,146.83,225.57z"/>
			<path class="st18" d="M383.58,248.34c15.99,2.3,31.71-16,33.5-44.85c1.45-23.33-9.39-41.97-25.61-43.28
				c-17.25-1.39-27.83,19.73-29.53,42.59C360.23,225.66,369.11,246.26,383.58,248.34z M381.53,201.93
				c0.96-9.45,3.84-17.2,9.32-17.22c6.67-0.01,8.03,11.24,7.8,18.78c-0.29,9.42-4.72,19.42-10.05,18.73
				C381.81,221.33,380.61,211.02,381.53,201.93z"/>
			<path class="st18" d="M164.89,252.82c-0.08,4.32,1.81,40.03,1.7,43.49c-0.26,8.55-11.49,10.08-12.9,0.57
				c-0.91-6.2-1.58-18.89-3.98-42.36c-0.49-4.81-20.47-2.91-20.26,0.85c0.3,5.36,3.2,44.88,8,57.77
				c3.98,10.7,12.17,18.88,25.15,17.85c13.04-1.03,22.72-13.05,23.57-29.06c0.72-13.6-1.89-47.79-2.32-50.7
				C183.19,246.7,164.98,248.27,164.89,252.82z"/>
			<path class="st18" d="M234.5,254.48c-11.95-15.08-43.27-6.89-43.27-3.68c0,7.39,2.35,75.02,3.44,78.43
				c1.1,3.41,15.74,3.95,15.85-1.79c0.04-1.87,0.34-10.51,0.73-21.33c0.76-0.18,1.5-0.38,2.23-0.6c1.82,5.26,5.93,13.96,11.31,22.7
				c1.39,2.25,12.86-2.4,12.42-6.22c-0.59-4.99-6.56-19.79-8.62-24.81C241.54,285.63,244.28,266.82,234.5,254.48z M223.65,275.63
				c-1.2,5.64-6.59,10.65-11.77,12.95c0.29-7.88,0.57-15.69,0.81-22.08C220.49,265.97,224.73,270.56,223.65,275.63z"/>
			<path class="st18" d="M268.56,290.62c0.31,5.06,9.04,2.55,8.49,13.39c-0.51,10-8.77,10.94-12.26,4.98
				c-8.42-14.39-1.66-39.44,6.64-43.78c7.69-4.03,13.28,9.2,20.44,0.38c4.18-5.15-2.7-19.36-21.08-17.27
				c-18.38,2.09-24.46,20.74-26.68,39.37c-2.81,23.57,3.32,41.22,22.98,44.09c19.66,2.87,29.74-11.58,25.79-36.28
				C289.94,277.16,267.89,279.63,268.56,290.62z"/>
			<path class="st18" d="M301.48,251.55c-3.44,7.85-3.27,69.91,3.71,77.25s26.21,1.64,28.26-3.47c2.04-5.1,2.79-10.69-0.43-12.08
				c-5.23-2.27-13.11,6.01-14.81-2.9c-0.24-1.25-0.42-4.35-0.54-8.35c3.98-1.01,10.64-2.78,11.39-3.54c1.09-1.08,1.15-11.74,0-12.96
				c-1.07-1.13-5.63-1.32-11.41-1.5c0.18-7.14,0.59-13.59,1.33-16.2c0.66-2.31,12.35,2.12,16.34,0.09
				c4.87-2.49,4.92-10.22,3.32-12.43C331.46,245.54,304.14,245.46,301.48,251.55z"/>
			<path class="st18" d="M390.26,266.44c-9.17-23.32-41.42-18.89-42.44-13.27c-1.57,8.64-8.15,71.9-7.66,75.82
				c0.48,3.93,12.68,6.84,14.29,2.32c0.59-1.65,2.41-11.52,4.49-23.4c0.9-0.01,1.79-0.03,2.65-0.09
				c1.22,10.22,3.58,23.66,4.72,25.73c1.88,3.42,13.08,1.91,13.25-2.85c0.13-3.7-0.71-20.51-1.09-27.89
				C391.06,295.15,395.64,280.12,390.26,266.44z M375.14,280.14c-0.65,5.51-5.73,10.69-13.13,9.96c1.36-8.02,2.64-15.65,3.56-21.2
				C371.4,269.76,375.88,273.81,375.14,280.14z"/>
			<path class="st18" d="M113.52,290.4c9.81-15.05,7.62-37.23-9.02-44.73c-22.08-9.96-48.16,5.65-48.17,11.97
				c-0.02,10.76,14.23,78.32,17.59,86.85c6.29,15.99,51.7,8.65,57.46-18.73C135.15,307.85,124.24,294.07,113.52,290.4z M85.19,287.8
				c-0.75-2.21-6.29-21.4-6.29-21.4c-0.57-1.97,17.09-7.19,20.11,4.47C102.04,282.53,85.95,290.01,85.19,287.8z M93.86,329.23
				c-0.61-2.06-4.77-19.15-4.77-19.15c-0.7-2.85,15.43-7.21,18.39,3.25C111.13,326.18,94.46,331.29,93.86,329.23z"/>
			<path class="st18" d="M412.12,245.95c-12.71,10.56-16.28,25.66-13.58,36.83c4,16.51,15.48,27.25,14.89,34.55
				c-0.34,4.26-3.57,8.43-11.28,7.41c-5.11-0.67-15.03-2.51-15.82,7.56c-0.58,7.33,2.93,15.14,18.04,20.15
				c20.46,6.8,38.36-11.83,36.47-28.93c-2.3-20.78-20.17-33-17.11-48.36c3.85-19.31,18.64-11.23,19.92-24.72
				C444.33,243.24,430.42,230.74,412.12,245.95z"/>
		</g>
		<g id="Shadow_9_">
			<path class="st19" d="M341.15,328.87c0.19,1.52,3.58,3.27,7.13,3.66c2.17,0.24,4.69-0.04,5.23-1.55
				c0.34-0.95,1.39-5.75,4.45-23.24l0.14-0.82l0.83-0.01c0.78-0.01,1.7-0.03,2.59-0.09l0.95-0.07l0.11,0.95
				c1.28,10.76,3.61,23.56,4.6,25.37c0.7,1.27,3.86,1.72,6.92,0.99c2.11-0.5,4.39-1.66,4.46-3.4c0.09-2.58-0.29-12.19-1.09-27.8
				l-0.03-0.6l0.51-0.31c0.55-0.34,1.09-0.69,1.61-1.06c-11.73,0.69-23.84,1.3-36.3,1.8C341.94,316.22,340.98,327.51,341.15,328.87z
				"/>
			<path class="st19" d="M332.62,314.17c-1.7-0.74-3.94-0.09-6.1,0.55c-2.39,0.7-4.86,1.42-6.8,0.24c-1.26-0.77-2.08-2.22-2.5-4.42
				c-0.21-1.08-0.38-3.41-0.51-6.93c-5.18,0.15-10.41,0.28-15.69,0.39c0.87,11.78,2.46,21.57,4.88,24.12
				c2.78,2.93,8.4,3.92,15.02,2.65c6.28-1.2,10.82-3.9,11.59-5.8C334.36,320.36,335.11,315.24,332.62,314.17z"/>
			<path class="st19" d="M95.03,351.7c15.11-1.27,32.11-10.66,35.37-26.15c2.1-9.98-0.43-18.32-4.7-24.36
				c-22.1-1.25-42.87-2.81-61.92-4.66c4.18,20.79,9.19,42.8,11.08,47.58C77.03,349.66,84.76,352.57,95.03,351.7z M92.9,306.29
				c6.1-1.61,13.57-0.18,15.54,6.77c2.71,9.53-5.05,15.51-10.93,17.2c-0.98,0.28-1.82,0.42-2.51,0.42c-1.15,0-1.88-0.39-2.11-1.16
				c-0.61-2.07-4.61-18.5-4.78-19.2C87.73,308.72,89.56,307.18,92.9,306.29z"/>
			<path class="st19" d="M408.94,303.63c3.24,5.56,5.8,9.95,5.49,13.78c-0.21,2.59-1.35,4.85-3.21,6.35
				c-2.22,1.79-5.4,2.47-9.2,1.97l-0.74-0.1c-1.54-0.21-3.42-0.46-5.31-0.46c-2.29,0-4.56,0.38-6.18,1.68
				c-1.46,1.18-2.27,2.99-2.47,5.53c-0.69,8.77,4.98,15.02,17.36,19.12c8.61,2.86,17.65,1.19,24.79-4.59
				c7.22-5.84,11.29-14.98,10.37-23.28c-1.07-9.65-5.49-17.27-9.76-24.65c-0.34-0.59-0.68-1.18-1.02-1.77
				c-7.34,0.67-14.93,1.3-22.73,1.88C407.23,300.7,408.11,302.21,408.94,303.63z"/>
			<path class="st19" d="M164.28,302.99c-1.16,0.84-2.5,1.31-3.82,1.39c-1.7,0.09-3.5-0.45-4.95-1.73
				c-6.72-0.28-13.35-0.58-19.86-0.91c0.83,4.51,1.75,8.39,2.74,11.06c2.58,6.94,9.14,18.39,24.13,17.2
				c12.03-0.95,21.1-11.68,22.51-26.34C178.03,303.47,171.1,303.24,164.28,302.99z"/>
			<path class="st19" d="M195.62,328.93c0.36,1.11,4.65,2.33,9.04,1.68c1.44-0.21,4.81-0.95,4.85-3.19
				c0.04-1.73,0.3-9.31,0.73-21.35l0.03-0.76l0.74-0.18c0.72-0.17,1.45-0.37,2.17-0.58l0.92-0.28l0.31,0.91
				c1.56,4.51,5.43,13.11,11.22,22.5c0.44,0.38,3.31,0.04,6.63-1.71c2.86-1.51,4.04-3.03,3.95-3.87c-0.39-3.3-3.28-11.22-5.79-17.65
				c-12.33-0.1-24.46-0.29-36.36-0.57C194.65,317.06,195.25,327.75,195.62,328.93z"/>
			<path class="st19" d="M278.02,304.37c-0.33,4.9-2.55,8.31-5.96,9.14c-3.07,0.75-6.27-0.83-8.14-4.02
				c-0.92-1.57-1.65-3.25-2.23-4.99c-3.88,0.02-7.78,0.03-11.7,0.03c-1.74,0-3.48,0-5.21-0.01c1.32,12.69,7.02,24.01,22.45,26.26
				c7.92,1.16,14.44-0.6,18.85-5.07c4.58-4.64,6.83-12.15,6.6-21.56C287.84,304.25,282.95,304.32,278.02,304.37z"/>
			<path class="st19" d="M172.47,201.4l-1.33,0.47l0-0.67c-6.32-0.4-12.51-0.85-18.56-1.34c1.35,20.42,3.44,40.39,4.33,42.14
				c0.36,0.55,3.11,1.07,7.29,0.56c4.35-0.53,6.56-1.69,6.72-2.17c0.08-0.38,0.27-3.14,0.27-20.21v-0.82l0.8-0.16
				c2.08-0.42,4.12-1,6.06-1.72l1.03-0.38l0.29,1.06c0.55,2.05,1.13,4.38,1.74,6.86c1.63,6.6,3.67,14.82,5.14,16.39
				c0.6,0.63,3.31,0.49,6.64-0.84c3.56-1.41,6.24-3.54,6.24-4.95c0-2.16-2.43-12.14-6.49-26.69l-0.16-0.56l0.41-0.41
				c1.69-1.7,3.16-3.51,4.47-5.4c-8.4-0.34-16.63-0.76-24.65-1.26C172.64,201.34,172.55,201.38,172.47,201.4z"/>
			<path class="st19" d="M325.47,239.33c-0.04,1.14,2.92,2.68,7.75,3.19c5.63,0.59,9.67-0.53,9.92-1.94
				c2.57-14.36,4.32-28.79,5.48-40.81c-6.8,0.56-13.78,1.07-20.92,1.51C326.83,212.29,325.95,225.66,325.47,239.33z"/>
			<path class="st19" d="M399.65,203.52L399.65,203.52c-0.23,7.56-2.95,15.02-6.6,18.13c-1.24,1.06-2.59,1.6-3.94,1.6
				c-0.21,0-0.43-0.01-0.64-0.04c-6.24-0.82-9.21-8.81-7.94-21.38c0.2-1.94,0.47-3.72,0.8-5.37c-5.79,0.7-11.78,1.36-17.94,1.97
				c-0.18,1.46-0.34,2.94-0.46,4.45c-1.72,23.02,7.41,42.55,20.79,44.48c5.46,0.79,10.96-0.94,15.93-4.99
				c9.24-7.52,15.38-22.07,16.43-38.94c0.26-4.21,0.11-8.26-0.4-12.07c-5.29,0.96-10.85,1.87-16.67,2.73
				C399.71,197.97,399.7,201.84,399.65,203.52z"/>
			<path class="st19" d="M283.08,203.97l-1.16,0.06l0.08-0.79c-6.2,0.15-12.47,0.26-18.82,0.32c-1.22,16.11-2.2,31.36-1.98,34.72
				c0.2,3.03,3.63,4.06,5.09,4.36c3.96,0.81,9.39-0.27,10.84-3.13c0.44-0.86,1.25-4.23,2.63-15.43l0.1-0.81l0.81-0.07
				c11.55-0.95,22.02-7.84,28.02-18.44c0.47-0.83,0.89-1.67,1.29-2.52c-7.22,0.34-14.59,0.62-22.07,0.83
				C286.4,203.57,284.79,203.88,283.08,203.97z"/>
			<path class="st19" d="M121.46,240.11c10.76-1.02,20.82-7.17,24.47-14.96c2.46-5.26,2.65-10.02,0.52-13.41
				c-1.56-2.5-4.24-4.02-7.17-4.07c-3.15-0.08-5.16,2.17-7.71,4.98c-1.71,1.88-3.65,4.01-6.2,5.58c-3,1.85-7.92,2.68-12.14,0.37
				c-3.56-1.95-7.85-6.82-8.05-18.97c-0.03-1.73,0.05-3.36,0.22-4.91c-7.48-1.05-14.57-2.19-21.23-3.39
				c-1.58,12.45,1.65,25.66,9.04,35.88C102.38,239.89,114.84,240.73,121.46,240.11z"/>
			<path class="st19" d="M220.52,211.56c0.93,2.91,1.31,5.9,1.15,8.9c-0.34,5.89-0.46,13.88,0.89,18.56
				c0.55,1.92,7.9,3.88,14.64,3.25c3.3-0.31,5.51-1.25,5.62-2.4c0.25-2.67-0.17-9.46-1.2-19.1c-0.33-3-0.03-5.99,0.87-8.87
				c0.69-2.19,1.6-5.04,2.65-8.28c-9.21-0.03-18.28-0.16-27.19-0.38C218.87,206.28,219.73,209.1,220.52,211.56z"/>
		</g>
		<g id="Shine_9_">
			<path class="st14" d="M312.32,188.5c-2.01-19.16-19.4-31.91-38.31-27.79c-3.77,0.82-2.18,6.61,1.6,5.79
				c14.84-3.23,29.12,6.81,30.72,22C306.72,192.3,312.72,192.34,312.32,188.5z"/>
			<path class="st14" d="M358.72,160.15c-11.65-1.52-23.33-2.07-35.07-1.64c-3.84,0.14-4.05,6.14-0.18,6
				c11.74-0.43,23.42,0.12,35.07,1.64C362.37,166.65,362.52,160.65,358.72,160.15z"/>
			<path class="st14" d="M239.23,270.67c-4.74-18.43-24.84-27.13-41.67-18.53c-3.44,1.76-0.41,6.94,3.03,5.18
				c13.47-6.88,29.11,0.42,32.85,14.94C234.4,276,240.19,274.42,239.23,270.67z"/>
			<path class="st14" d="M285.17,254.27c-14.94-7.82-31.19-0.39-34.51,16.37c-0.75,3.77,4.33,5.18,5.79,1.6
				c4.72-11.62,13.96-18.93,25.7-12.78C285.56,261.24,288.6,256.07,285.17,254.27z"/>
			<path class="st14" d="M333.85,254.02c-8.98-2.27-17.98-2.49-27.08-0.74c-3.79,0.73-2.18,6.51,1.6,5.79
				c8.02-1.54,15.97-1.27,23.89,0.74C336,260.75,337.6,254.97,333.85,254.02z"/>
			<path class="st14" d="M354.94,254.24c-3.73,0.97-2.15,6.76,1.6,5.79c16.1-4.19,31.1,9.44,27.9,25.92
				c-0.73,3.77,5.05,5.39,5.79,1.6C394.28,266.63,375.71,248.84,354.94,254.24z"/>
			<path class="st14" d="M430.72,242.83c-20.78,1.79-34.85,20.73-30.35,41.15c0.83,3.77,6.62,2.17,5.79-1.6
				c-3.62-16.4,7.76-32.11,24.56-33.56C434.54,248.5,434.57,242.5,430.72,242.83z"/>
			<path class="st14" d="M141.35,253.38c-9.75,1.98-11.4,1.05-8.2,23.91c0.53,3.81,5.61,2.91,5.43-0.91
				c-0.55-11.4-1.46-16.02,4.37-17.21C146.73,258.4,145.13,252.62,141.35,253.38z"/>
			<path class="st14" d="M184.04,272.18c-1.72-23.4-0.04-19.53-9.31-21.28c-3.79-0.71-5.13,4.35-1.6,5.79
				c5.66,2.3,4.24,12.3,5.12,17.09C178.95,277.57,184.33,276.01,184.04,272.18z"/>
			<path class="st14" d="M97.85,247.36c-12.66-4.02-25.93,0.36-36.15,8.13c-3.03,2.31-0.05,7.52,3.03,5.18
				c8.12-6.17,18.08-10.36,28.42-8.33c10.37,2.04,18.48,10.35,18.25,21.21c-0.08,3.86,5.92,3.86,6,0
				C117.65,261.31,109.34,251.02,97.85,247.36z"/>
			<path class="st14" d="M139.57,168.86c-15.34-13.72-38.83-10.4-49.54,7.24c-2.01,3.31,3.18,6.33,5.18,3.03
				c8.64-14.23,27.66-17.17,40.12-6.03C138.2,175.67,142.45,171.44,139.57,168.86z"/>
			<path class="st14" d="M188.96,161.39c-9.89-4.67-20.98-3.12-30.74,0.5c-3.34,1.24-1.12,6.78,2.22,5.54
				c14.15-5.24,34.13-4.93,37.64,15.1c0.66,3.79,5.75,3.05,5.09-0.77C201.46,171.98,197.36,165.36,188.96,161.39z"/>
			<path class="st14" d="M216.38,157.13c-1.13,0.64-2.07,1.39-2.87,2.21c-0.29-1.86-2.51-2.57-4.19-1.86
				c-1.36-0.32-3.13,0.37-3.52,1.8c-1.07,3.89-1.22,7.85-0.08,11.75c0.55,1.88,2.45,2.75,3.97,2.33c0.05,0.86,0.12,1.72,0.21,2.57
				c0.4,3.84,6.33,2.9,5.93-0.93c-0.42-4-1.18-10.02,3.03-12.41C222.17,160.7,219.74,155.21,216.38,157.13z"/>
			<path class="st14" d="M249.24,155.95c1.09,0.72,1.97,1.53,2.72,2.4c0.4-1.84,2.67-2.4,4.3-1.58c1.37-0.23,3.1,0.57,3.4,2.02
				c0.81,3.95,0.71,7.91-0.68,11.73c-0.67,1.84-2.62,2.59-4.11,2.07c-0.11,0.85-0.23,1.71-0.38,2.55c-0.65,3.81-6.5,2.49-5.86-1.31
				c0.67-3.97,1.82-9.92-2.22-12.58C243.22,159.14,246,153.82,249.24,155.95z"/>
			<path class="st14" d="M410.45,179.88c-4.06-8.2-9.45-15.83-19.1-16.24c-11.66-0.49-17.08,8.32-20.74,17.4
				c-1.36,3.37,3.53,6.3,4.9,2.89c2.87-7.12,7.88-14.29,15.84-14.52c7.6-0.21,11.34,7.11,14.44,13.37
				C407.41,186.07,412.07,183.17,410.45,179.88z"/>
		</g>
		<g id="Trimmer_4_">
			<path class="st18" d="M111.55,277.29c0,0-0.47-2.27,1.08-1.3c1.56,0.96,2.51-0.78,2.61-2.53s1.11,1.11,1.11,1.11l-0.68,3.15
				l-3.11,1.06"/>
			<path class="st18" d="M59.39,260.2c0,0,2.19,0.85,1.37-0.68s1.37-3.88,2.57-4.75c1.2-0.88-4.06,0.9-4.57,2.65"/>
			<path class="st18" d="M132.81,258.25c0,0,0.92,1.32,0.84,0.13c-0.08-1.19,0.6-1.84,1.77-2.08c1.18-0.23-0.19-1.44-1.31-0.63
				c-1.12,0.81-1.12,0.81-1.12,0.81"/>
			<path class="st18" d="M175.47,252.1c0.11,0,1.43,0.34,2.54,0.48c1.11,0.13,2.03,0.39,2.18,2.27c0.16,1.88,1.17,1.02,1.09,0
				c-0.09-1.02-0.68-3.15-0.68-3.15"/>
			<path class="st18" d="M169.96,252.38l0.38,2.98c0,0,1.2,0.73,0.85-0.76c-0.4-1.68,2.88-1.99,3.85-2.03
				c0.98-0.04-1.38-0.49-1.45-0.51c-0.06-0.02-3.3-0.37-3.3-0.37"/>
			<path class="st18" d="M182.3,274.45c0,0-0.8-0.73-0.75,0.14c0.05,0.87-0.17,1.33-0.71,1.36c-0.52,0.03-0.27,0.37-0.09,0.42
				c0.18,0.04,1.34-0.12,1.34-0.12l0.28-0.7"/>
			<path class="st18" d="M200.13,250.42c0,0,4.43-0.3,2.72,0.02c-1.71,0.33-3.38,0.76-5.07,1.59c-1.69,0.83-0.71-0.87-0.71-0.87
				s3.04-0.83,3.11-0.85"/>
			<path class="st18" d="M234.6,274.78c-0.13,0.09-0.71-0.9,0.48-0.58c1.19,0.32,1.33-0.74,1.32-1.46c0-0.72,0.51,0.83,0.51,0.83
				s0.72,1.38,0.21,1.68s-0.6,0.21-1.26,0.28"/>
			<path class="st18" d="M251.53,268.12c0,0,0.68,1.45,0.22,2.83c-0.46,1.38-0.54,2.57,0.44,3.04c0.98,0.47-0.3,0.98-0.87,0.79
				s-2.13-0.83-2.04-1.06"/>
			<path class="st18" d="M284.68,254.31c0,0,0.05,0.66,0.78,1.31s1.34,1.63,0.64,2.78c-0.7,1.16,0.43,1.79,1.55,0.39
				c1.12-1.4,1.76-2.79,1.5-3.03"/>
			<path class="st18" d="M305.55,253.19c0,0-0.56,0.83,0.17,0.5c0.73-0.33,1.89-0.57,2.78-0.72s-0.79-0.32-0.96-0.29
				c-0.17,0.02-2.2,0.18-2.2,0.18"/>
			<path class="st18" d="M335.03,259.49c0,0-0.07-0.25,0.19-0.6c0.25-0.35,0.15-1.2-0.48-1.86c-0.63-0.67,0.57-0.48,0.57-0.48
				l0.38,1.31l0.11,0.9c0,0-0.35,0.42-0.46,0.45"/>
			<path class="st18" d="M384.14,288.12c0,0,0.24-0.62,0.59-0.12c0.35,0.5,1.22,1.14,1.74-0.2c0.52-1.33,1.28,3.38-1.68,2.18"/>
			<path class="st18" d="M402.7,284.09c0,0,0.03-0.9,0.46,0.44c0.43,1.34,1.55,1.35,2.07,0.77c0.52-0.58,0.76,0.37,0.76,0.37
				s-0.54,1.14-1.61,1.54s-2.55-0.03-2.59-0.1"/>
			<path class="st18" d="M428.03,243.16c1.2-0.17,3.41-0.39,4.71,0.28s-0.16-0.67-0.16-0.67s-0.77-0.41-1.02-0.48
				c-0.26-0.06-1.44-0.93-1.44-0.93"/>
			<path class="st18" d="M409.91,178.4c0,0-0.5,1-0.07,2.1c0.43,1.11,0.8,2.24-0.05,2.95c-0.85,0.71-0.77,1.32,0.19,0.97
				c0.97-0.35,1.92-0.97,1.92-0.97s-0.29-3.07-0.4-3.18"/>
			<path class="st18" d="M370.83,178.55c0,0,1.46-0.66,0.86,0.68c-0.6,1.34-1.49,4.05-0.52,5.08s0,1.14,0,1.14s-2-1.4-1.83-1.73
				c0.17-0.33,0.6-2.14,0.6-2.14"/>
			<path class="st18" d="M359.74,160.88c0,0-0.5,0.72,0.24,0.96c0.74,0.24,1.43,0.55,1.51,1.62c0.08,1.07,0.52,1.23,0.57,0.83
				s-0.23-2.12-0.34-2.23c-0.1-0.1-1.34-1.01-1.34-1.01"/>
			<path class="st18" d="M320.18,160.54c0.01,0.03,0.41,1.24,0.57,0.47c0.16-0.77,0.92-1.2,1.71-1.38s-1.62-0.4-1.62-0.4"/>
			<path class="st18" d="M311.59,189.71c-0.22,0-1.24-0.86-1.33,0.08c-0.08,0.94-0.61,1.57-1.32,1.53
				c-0.71-0.04,0.22,0.24,0.41,0.29c0.2,0.05,0.33,0.09,0.52,0.03c0.19-0.06,0.45-0.3,0.47-0.34"/>
			<path class="st18" d="M254.89,158.97c0,0-0.67,0.06,0.14,0.1s1.23,0.44,0.91,1.45c-0.32,1.01,0.92,0.21,0.92,0.21
				s0.72-1.61,0.21-2c-0.51-0.39-1.39-0.57-1.39-0.57"/>
			<path class="st18" d="M247.83,160.27c0,0-0.02,1.31,0.21,0.58c0.23-0.73,1.1-1.21,1.88-1.34c0.78-0.14-2.41,0.02-2.41,0.02
				l-0.07,0.22"/>
			<path class="st18" d="M208.72,162.06c0.16,0.06,0.78,0.44,0.48-0.63c-0.3-1.07,1.42-1.69,1.42-1.69l-0.95-1.01
				c0,0-1.22,0.35-1.3,0.46"/>
			<path class="st18" d="M217.34,158.95c0.1,0.13-0.01,0.67,0.74,0.99c0.75,0.32,0.99,0.91,1.09,1.35c0.1,0.44,0.47,0.21,0.49-0.43
				c0.02-0.64-0.87-2.13-0.87-2.13"/>
			<path class="st18" d="M218.57,163.18c-0.04,0.02-0.29-0.24,0.03-0.43s0.82-0.46,0.64-1.15c-0.18-0.69,0.44,0.22,0.48,0.32
				c0.03,0.1,0.26,0.8,0.26,0.8s-0.16,0.38-0.26,0.46"/>
			<path class="st18" d="M212.36,175.03c0,0,0.78,0.57,1.05,1.56c0.28,0.99,0.92,1.34,1.64,0.79c0.72-0.55,0.66-0.09,0.66-0.09
				s0.08,0.89-0.89,1.26s-1.6,1.24-2.33,0.11"/>
			<path class="st18" d="M197.06,185.1c0,0,1.37-1.01,2.43-0.41c1.05,0.6,1.34-0.74,1.4-2.06c0.05-1.33,0.55-0.16,0.63,0.56
				c0.08,0.72,0.3,1.69-0.1,2.15c-0.4,0.46-1.39,0.8-1.76,0.81"/>
			<path class="st18" d="M90.91,176.45c0,0,1.33-0.2,0.74,0.92c-0.59,1.12-1.02,2.65-0.27,2.86c0.74,0.21-0.53,1.07-0.71,0.67
				c-0.18-0.4-0.67-1.47-0.7-1.53"/>
			<path class="st18" d="M249.13,177.23c0,0-0.18-1.1,0.43-0.67s1.26-0.05,1.83-1.8s0.84,0.31,0.84,0.31s-1.4,2.55-1.48,2.78
				s0.33,0.53-0.5,0.49"/>
			<path class="st18" d="M247.44,164.29c0,0,0.91-1.04,0.6-1.46c-0.31-0.42-0.36-0.82-0.1-1.64c0.26-0.82-1.06,0.69-1.06,0.69
				s-0.13,1.07-0.08,1.15"/>
			<path class="st18" d="M145.55,258.12c0,0-0.51,0.26-0.47-1.12c0.03-1.18-1.52-1.34-2.69-1.34s1.64-0.26,1.72-0.26c0.09,0,2,0,2,0
				"/>
			<path class="st18" d="M137.23,280.61c0,0,0.53-1.58-0.29-1.19c-0.82,0.38-1.38-0.01-1.54-1.48c-0.16-1.48-1.38-0.32-0.49,1.65
				c0.89,1.98,0.28,1.78,0.89,1.98"/>
		</g>
		<g id="Inner_Stroke_4_">
			<path class="st18" d="M254.45,159.07c0.79,0,1.42,0.05,1.91,0.11c-1.47,4.87-5.37,16.82-8.88,27.56l-0.04,0.13
				c-3.15,9.64-6.12,18.75-7.8,24.13c-1.03,3.28-1.36,6.67-0.99,10.08c1.16,10.95,1.29,15.65,1.24,17.6
				c-0.52,0.2-1.48,0.46-2.96,0.59c-0.76,0.07-1.55,0.11-2.36,0.11c-4.43,0-8.11-1.05-9.27-1.73c-0.85-3.44-1.07-9.44-0.64-17.03
				c0.19-3.37-0.25-6.72-1.29-9.98c-4.05-12.63-10.29-35.16-13.28-45.98c-0.51-1.85-0.93-3.35-1.23-4.42c1-0.4,2.86-0.84,5.26-0.84
				c1.43,0,2.76,0.17,3.75,0.47c0.58,0.18,0.92,0.36,1.09,0.47c1.15,5.63,6.64,28.72,8.46,36.39c0.49,2.14,2.38,3.7,4.57,3.77
				l0.03,0l0.03,0l0.05,0h0.02c2.18,0,4.06-1.38,4.69-3.44l0.44-1.42c2.42-7.88,9.37-30.5,11.08-35.76
				C249.52,159.52,251.94,159.07,254.45,159.07L254.45,159.07 M254.45,156.07c-3.81,0-8.08,0.96-8.57,1.77
				c-0.73,1.97-8.54,27.36-11.47,36.92l-0.44,1.42c-0.25,0.81-0.98,1.32-1.82,1.32c-0.01,0-0.02,0-0.03,0
				c-0.86-0.03-1.56-0.61-1.76-1.45c-1.86-7.82-7.52-31.63-8.51-36.6c-0.27-1.33-1.83-2.07-3.09-2.45c-1.35-0.41-2.98-0.6-4.63-0.6
				c-3.34,0-6.76,0.78-8.09,2.09c-0.54,0.53-0.51,0.94-0.42,1.24c0.25,0.85,0.81,2.89,1.59,5.72c3,10.85,9.25,33.42,13.32,46.1
				c0.93,2.91,1.31,5.9,1.15,8.9c-0.34,5.89-0.46,13.88,0.89,18.56c0.48,1.67,6.11,3.37,12.01,3.37c0.88,0,1.76-0.04,2.63-0.12
				c3.3-0.31,5.51-1.25,5.62-2.4c0.25-2.67-0.17-9.46-1.2-19.1c-0.33-3-0.03-5.99,0.87-8.87c1.67-5.33,4.64-14.45,7.79-24.1
				c4.44-13.61,9.04-27.68,9.56-29.95c0.05-0.22,0.15-0.68-1.02-1.15C257.69,156.25,256.11,156.07,254.45,156.07L254.45,156.07z"/>
			<path class="st18" d="M280.29,159.73c9.43,0,21.51,4.06,27.14,15.47c4.31,8.72,3.82,18.97-1.35,28.1
				c-5.51,9.73-15.1,16.06-25.65,16.92l-0.81,0.07l-2.44,0.2l-0.3,2.43l-0.1,0.81c-1.45,11.81-2.19,14.09-2.34,14.45
				c-0.4,0.73-2.49,1.73-5.44,1.73c-0.74,0-1.47-0.07-2.11-0.2c-0.91-0.19-2.65-0.77-2.7-1.62c-0.43-6.48,4.25-64.5,5.47-75.63
				c0.34-0.5,2.12-1.68,5.7-2.31C276.88,159.86,278.54,159.73,280.29,159.73 M278.59,207.21l3.49-0.18l1.16-0.06
				c10.21-0.54,17.73-7.57,18.3-17.08c0.47-7.72-3.94-17.39-14.74-20.38l-1.16-0.32l-3.48-0.96l-0.31,3.6l-0.1,1.2
				c-0.97,11.31-1.85,20.98-2.7,29.56l-0.11,1.16L278.59,207.21 M280.29,156.73c-1.97,0-3.81,0.16-5.45,0.45
				c-4.72,0.83-7.92,2.72-8.14,4.81c-1.12,10.11-5.96,69.26-5.5,76.28c0.2,3.03,3.63,4.06,5.09,4.36c0.85,0.18,1.78,0.26,2.71,0.26
				c3.4,0,6.99-1.15,8.12-3.39c0.44-0.86,1.25-4.23,2.63-15.43l0.1-0.81l0.81-0.07c11.55-0.95,22.02-7.84,28.02-18.44
				c5.67-10.01,6.19-21.28,1.43-30.9C303.73,160.94,290.35,156.73,280.29,156.73L280.29,156.73z M281.92,204.03l0.11-1.16
				c0.85-8.6,1.73-18.29,2.7-29.6l0.1-1.2l1.16,0.32c9.19,2.54,12.95,10.75,12.55,17.3c-0.47,7.94-6.83,13.81-15.46,14.27
				L281.92,204.03L281.92,204.03z"/>
			<path class="st18" d="M172.81,159.03c7.16,0,19.92,1.43,24.99,10.98c5.95,11.22,3.13,25.62-7.03,35.84l-0.41,0.41l-1.23,1.24
				l0.47,1.68l0.16,0.56c4.59,16.43,6.12,23.48,6.35,25.45c-0.5,0.55-1.92,1.64-4.31,2.59c-1.54,0.61-2.83,0.89-3.66,0.97
				c-1.17-2.59-3.05-10.18-4.12-14.49c-0.61-2.47-1.19-4.81-1.75-6.88l-0.29-1.06l-0.86-3.18l-3.08,1.15l-1.03,0.38
				c-1.79,0.67-3.68,1.2-5.61,1.59l-0.8,0.16l-2.41,0.48v2.46v0.82c0,11.77-0.09,16.55-0.16,18.48c-0.81,0.29-2.19,0.67-4.2,0.92
				c-1.01,0.12-1.97,0.19-2.86,0.19c-0.66,0-1.19-0.03-1.59-0.08c-1.7-8.93-5.9-57.59-4.89-77.04c0.85-0.56,3.04-1.62,7.12-2.5
				C163.59,159.74,167.63,159.03,172.81,159.03 M172.81,156.03c-4.49,0-8.66,0.52-11.8,1.19c-6.4,1.38-9.37,3.38-9.44,4.36
				c-1.29,20.33,3.81,77.41,5.34,80.42c0.26,0.39,1.73,0.77,4.08,0.77c0.94,0,2.02-0.06,3.22-0.21c4.35-0.53,6.56-1.69,6.72-2.17
				c0.08-0.38,0.27-3.14,0.27-20.21v-0.82l0.8-0.16c2.08-0.42,4.12-1,6.06-1.72l1.03-0.38l0.29,1.06c0.55,2.05,1.13,4.38,1.74,6.86
				c1.63,6.6,3.67,14.82,5.14,16.39c0.22,0.23,0.74,0.36,1.47,0.36c1.23,0,3.08-0.36,5.18-1.2c3.56-1.41,6.24-3.54,6.24-4.95
				c0-2.16-2.43-12.14-6.49-26.69l-0.16-0.56l0.41-0.41c11.08-11.16,14.12-26.97,7.55-39.36
				C195.23,158.77,183.15,156.03,172.81,156.03L172.81,156.03z"/>
			<path class="st18" d="M119.11,161.96c4.42,0,8.56,0.92,12.3,2.74c4.81,2.33,8.72,6.2,9.74,9.61c1.28,4.3-1.63,8.46-5.02,10.2
				c-1.15,0.59-2.28,0.89-3.36,0.89c-2.35,0-3.97-1.46-4.91-2.68c-2.89-3.74-6.88-5.88-10.95-5.88c-1.32,0-2.62,0.22-3.87,0.66
				c-6.99,2.45-11.05,10.75-10.86,22.19c0.23,13.59,5.35,19.22,9.61,21.55c2.12,1.16,4.57,1.77,7.07,1.77
				c2.89,0,5.76-0.79,8.09-2.22c2.91-1.79,5.09-4.19,6.85-6.12l0.08-0.09c2.33-2.57,3.63-3.91,5.26-3.91l0.11,0
				c1.9,0.03,3.65,1.02,4.67,2.66c1.56,2.5,1.32,6.25-0.7,10.55c-3.16,6.77-12.43,12.34-22.03,13.24c-0.94,0.09-1.91,0.13-2.86,0.13
				c-6.45,0-15.62-2.05-22.68-11.8c-8.33-11.51-11.05-27.05-7.11-40.55c2.87-9.82,8.99-17.02,17.24-20.28
				C110.25,162.86,114.74,161.96,119.11,161.96 M119.11,158.96c-4.69,0-9.58,0.96-14.44,2.88c-9.13,3.61-15.88,11.5-19.02,22.23
				c-4.2,14.37-1.3,30.9,7.56,43.15c7.87,10.88,18.16,13.04,25.11,13.04c1.15,0,2.2-0.06,3.14-0.15
				c10.76-1.02,20.82-7.17,24.47-14.96c2.46-5.26,2.65-10.02,0.52-13.41c-1.56-2.5-4.24-4.02-7.17-4.07c-0.05,0-0.1,0-0.16,0
				c-3.06,0-5.05,2.22-7.55,4.98c-1.71,1.88-3.65,4.01-6.2,5.58c-1.71,1.05-4.04,1.78-6.51,1.78c-1.87,0-3.81-0.41-5.63-1.41
				c-3.56-1.95-7.85-6.82-8.05-18.97c-0.17-10.09,3.14-17.31,8.85-19.31c0.94-0.33,1.91-0.49,2.87-0.49c3.11,0,6.22,1.67,8.58,4.72
				c1.96,2.54,4.52,3.85,7.29,3.85c1.53,0,3.13-0.4,4.73-1.22c4.47-2.29,8.27-7.88,6.52-13.73c-1.27-4.23-5.7-8.73-11.31-11.45
				C128.54,159.97,123.93,158.96,119.11,158.96L119.11,158.96z"/>
			<path class="st18" d="M336.42,158.52c1.9,0,3.79,0.06,5.64,0.17c8.99,0.55,16.63,2.6,19.57,3.69c-0.17,3.31-1.35,9.42-2.38,11.18
				c-2.7,0.6-5.49,1.04-8.31,1.32l-0.85,0.08l-2.54,0.25l-0.16,2.55l-0.05,0.85c-0.79,12.34-2.73,36.49-6.98,60.55
				c-0.65,0.23-2,0.53-4.15,0.53c-0.85,0-1.75-0.05-2.67-0.15c-2.65-0.28-4.26-0.85-5.03-1.23c1.01-27.52,3.63-53.67,4.42-61.11
				l0.11-1.04l0.33-3.11l-3.12-0.2l-1.04-0.07c-5.37-0.35-7.86-0.74-8.92-0.96c-0.62-2.07-1.06-7.68-0.17-11.69
				C322.45,159.51,328.51,158.52,336.42,158.52 M336.42,155.52c-9.88,0-17.71,1.52-18.8,2.4c-1.8,5.4-0.92,15.03,0.61,16.4
				c0.18,0.13,1.58,0.88,10.79,1.47l1.04,0.07l-0.11,1.04c-0.8,7.56-3.49,34.41-4.48,62.44c-0.04,1.14,2.92,2.68,7.75,3.19
				c1.05,0.11,2.05,0.16,2.98,0.16c4.03,0,6.74-0.95,6.94-2.11c4.38-24.5,6.38-49.22,7.18-61.78l0.05-0.85l0.85-0.08
				c3.17-0.31,6.31-0.82,9.32-1.52c2.58-0.6,4.41-12.86,4.04-15.85c-1.34-1.13-11.12-4.11-22.34-4.8
				C340.25,155.57,338.29,155.52,336.42,155.52L336.42,155.52z"/>
			<path class="st18" d="M389.87,164.15c0.42,0,0.85,0.02,1.28,0.05c13.82,1.12,23.25,17.9,21.94,39.05
				c-0.99,16.04-6.72,29.8-15.33,36.79c-3.67,2.99-7.52,4.5-11.46,4.5c-0.71,0-1.44-0.05-2.15-0.15
				c-11.62-1.67-19.8-20.19-18.22-41.28c1.15-15.52,6.27-28.58,13.68-34.92C382.73,165.5,386.18,164.15,389.87,164.15
				 M389.11,226.25c2.07,0,4.1-0.8,5.89-2.32c4.31-3.68,7.39-11.84,7.65-20.32c0.13-4.32-0.1-14.92-5.03-20
				c-1.85-1.9-4.18-2.91-6.78-2.91c-4.17,0.02-11.45,2.74-13.28,20.82c-1.46,14.39,2.48,23.6,10.53,24.66
				C388.42,226.23,388.77,226.25,389.11,226.25 M389.87,161.15c-4.43,0-8.53,1.59-12.21,4.75c-8,6.85-13.5,20.68-14.72,36.98
				c-1.72,23.02,7.41,42.55,20.79,44.48c0.86,0.12,1.72,0.19,2.58,0.19c4.6,0,9.17-1.76,13.35-5.17
				c9.24-7.52,15.38-22.07,16.43-38.94c1.42-22.82-9.2-40.97-24.69-42.22C390.88,161.17,390.37,161.15,389.87,161.15L389.87,161.15z
				 M389.11,223.25c-0.21,0-0.43-0.01-0.64-0.04c-6.24-0.82-9.21-8.81-7.94-21.38c1.19-11.67,4.85-18.1,10.31-18.12
				c0,0,0.01,0,0.01,0c1.77,0,3.32,0.67,4.61,2c4.25,4.38,4.28,14.74,4.18,17.81v0c-0.23,7.56-2.95,15.02-6.6,18.13
				C391.81,222.71,390.46,223.25,389.11,223.25L389.11,223.25z"/>
			<path class="st18" d="M176.49,252.52c1.72,0,2.87,0.2,3.52,0.39c0.63,6.48,2.82,36.46,2.16,48.81
				c-0.74,14.02-8.92,24.42-19.89,25.28c-0.64,0.05-1.28,0.08-1.89,0.08c-11.15,0-16.59-8.34-19.19-15.33
				c-3.88-10.41-6.86-42.56-7.65-54.91c1.04-0.38,2.92-0.87,5.72-1.09c0.83-0.07,1.65-0.1,2.42-0.1c2.09,0,3.45,0.24,4.17,0.45
				c1.15,11.37,1.9,20.27,2.46,26.82c0.58,6.85,0.96,11.38,1.43,14.55c1.02,6.85,5.93,9.92,10.35,9.92c0.18,0,0.36,0,0.55-0.02
				c4.79-0.28,9.75-4.13,9.95-10.94c0.06-1.74-0.28-9.26-0.83-21.42l0-0.07l0-0.08c-0.38-8.29-0.8-17.55-0.86-20.97
				c0.95-0.47,3.05-1.14,6.15-1.34C175.54,252.54,176.03,252.52,176.49,252.52 M176.49,249.52c-0.52,0-1.07,0.02-1.64,0.05
				c-5.25,0.33-8.94,1.99-8.97,3.27c-0.04,2.14,0.42,12.36,0.87,22.24c0.45,10.03,0.88,19.51,0.83,21.26
				c-0.15,5.01-3.7,7.84-7.13,8.04c-0.12,0.01-0.25,0.01-0.37,0.01c-3.19,0-6.62-2.22-7.38-7.36c-0.45-3.07-0.83-7.56-1.4-14.36
				c-0.57-6.79-1.36-16.08-2.58-28.04c-0.11-1.05-2.76-1.97-7.04-1.97c-0.83,0-1.71,0.03-2.65,0.11c-5.73,0.45-8.61,2-8.58,2.56
				c0.39,7,3.35,45.15,7.94,57.48c2.45,6.6,8.51,17.29,22,17.29c0.69,0,1.4-0.03,2.13-0.09c12.51-0.99,21.82-12.55,22.65-28.12
				c0.72-13.51-1.92-47.87-2.31-50.5C182.72,250.41,180.3,249.52,176.49,249.52L176.49,249.52z"/>
			<path class="st18" d="M315.49,251.4c8.93,0,17.07,2.6,19.86,6.34c0.18,0.44,0.42,2.01,0,3.73c-0.24,1-0.76,2.3-1.82,2.85
				c-0.01,0.01-0.33,0.13-1.29,0.13c-1.69,0-3.96-0.37-5.97-0.69c-2.09-0.34-3.9-0.63-5.46-0.63c-4.05,0-5.3,2.25-5.68,3.59
				c-0.76,2.69-1.26,8.48-1.48,17.19l-0.02,0.99l-0.07,2.98l2.98,0.09l0.99,0.03c1.98,0.06,6.15,0.19,8.25,0.49
				c0.19,1.88,0.18,5.26-0.01,7.09c-1.25,0.43-3.84,1.22-9.07,2.55l-0.78,0.2l-2.33,0.59l0.07,2.4l0.02,0.8
				c0.19,6.17,0.44,8.08,0.61,8.98c0.58,3.04,1.88,5.19,3.88,6.41c1.16,0.71,2.51,1.07,4.01,1.07c1.82,0,3.61-0.52,5.2-0.99
				c1.27-0.37,2.58-0.75,3.51-0.75c0.11,0,0.2,0.01,0.28,0.01c0.2,0.9,0,3.43-1.38,6.92c-0.47,0.69-3.57,2.92-9.39,4.04
				c-1.69,0.32-3.32,0.49-4.84,0.49c-3.37,0-6.08-0.82-7.44-2.26c-1.54-1.62-4.07-12.47-4.74-35.71
				c-0.52-18.27,0.46-33.7,1.73-37.02c0.44-0.37,2.24-1.27,6.16-1.69C312.6,251.47,314.03,251.4,315.49,251.4 M315.49,248.4
				c-1.56,0-3.1,0.08-4.57,0.24c-4.58,0.49-7.85,1.76-8.53,3.32c-3.51,8.01-3.11,69.19,3.52,76.16c1.99,2.09,5.41,3.19,9.62,3.19
				c1.69,0,3.5-0.18,5.4-0.54c6.28-1.2,10.82-3.9,11.59-5.8c1.84-4.6,2.58-9.72,0.1-10.79c-0.54-0.23-1.13-0.33-1.75-0.33
				c-1.35,0-2.87,0.44-4.35,0.87c-1.47,0.43-2.97,0.87-4.36,0.87c-0.87,0-1.7-0.17-2.44-0.63c-1.26-0.77-2.08-2.22-2.5-4.42
				c-0.24-1.23-0.42-4.1-0.56-8.51l-0.02-0.8l0.78-0.2c8.9-2.26,10.6-3.07,10.91-3.27c0.77-1.44,0.76-10.4-0.03-11.61
				c-0.8-0.85-6.75-1.03-10.69-1.15l-0.99-0.03l0.02-0.99c0.15-5.82,0.5-13.4,1.37-16.45c0.3-1.05,1.3-1.41,2.79-1.41
				c1.32,0,3.02,0.28,4.98,0.59c2.09,0.34,4.52,0.73,6.45,0.73c1.07,0,2-0.12,2.62-0.44c2.11-1.08,3.01-3.23,3.4-4.83
				c0.61-2.56,0.25-5.17-0.44-6.12C334.14,250.96,324.37,248.4,315.49,248.4L315.49,248.4z"/>
			<path class="st18" d="M274.34,252.12c9.42,0,12.95,5.11,13.8,6.67c1.14,2.08,1.05,3.76,0.62,4.28c-1.31,1.61-2.03,1.61-2.27,1.61
				c-0.91,0-2.32-0.76-3.81-1.57c-2.21-1.2-4.96-2.69-8.18-2.69c-1.7,0-3.36,0.42-4.93,1.24c-4.39,2.3-8.25,8.27-10.58,16.4
				c-2.7,9.38-3.5,22.96,2.34,32.94c2.08,3.56,5.52,5.69,9.2,5.69c0.75,0,1.5-0.09,2.24-0.27c4.85-1.18,7.94-5.75,8.27-12.21
				c0.46-9-4.57-11.81-7.28-13.32c-0.32-0.18-0.91-0.51-1.22-0.73c0-2.76,3.28-3.87,5.05-4.06c0.34-0.04,0.69-0.06,1.03-0.06
				c4.2,0,9.11,2.65,10.3,10.09c1.99,12.45,0.22,22.21-4.98,27.48c-2.96,3-7.05,4.52-12.14,4.52c-1.32,0-2.72-0.11-4.15-0.31
				c-8.91-1.3-14.73-5.91-17.79-14.1c-2.44-6.52-3.04-15.12-1.8-25.56c2.7-22.67,10.28-34.4,23.16-35.87
				C272.3,252.18,273.34,252.12,274.34,252.12L274.34,252.12 M274.34,249.12c-1.09,0-2.24,0.06-3.43,0.2
				c-14.47,1.65-22.91,14.24-25.8,38.49c-2.12,17.82-0.01,39.75,22.13,42.98c1.58,0.23,3.11,0.35,4.58,0.35
				c5.87,0,10.74-1.84,14.27-5.42c5.89-5.97,7.95-16.65,5.8-30.06c-1.42-8.84-7.62-12.61-13.26-12.61c-0.46,0-0.91,0.02-1.36,0.07
				c-3.91,0.43-7.99,2.94-7.71,7.44c0.09,1.4,1,1.98,2.75,2.95c2.58,1.44,6.1,3.41,5.74,10.55c-0.26,5.07-2.5,8.6-5.99,9.45
				c-0.51,0.12-1.02,0.18-1.53,0.18c-2.56,0-5.05-1.54-6.61-4.2c-5.36-9.16-4.57-21.81-2.05-30.6c2.08-7.24,5.48-12.68,9.09-14.57
				c1.23-0.64,2.41-0.9,3.54-0.9c2.46,0,4.7,1.21,6.75,2.32c1.89,1.02,3.57,1.93,5.24,1.93c1.49,0,2.97-0.72,4.59-2.72
				c1.4-1.72,1.27-4.71-0.32-7.61C288.49,253.19,283.05,249.12,274.34,249.12L274.34,249.12z"/>
			<path class="st18" d="M361.55,252.68c4.46,0,19.44,1.1,24.99,15.22c4.73,12.03,0.56,24.98-10.15,31.49l-0.51,0.31l-1.53,0.93
				l0.09,1.79l0.03,0.6c1,19.34,1.12,25.36,1.1,27.22c-0.29,0.23-1.02,0.64-2.16,0.91c-0.73,0.17-1.5,0.27-2.22,0.27
				c-0.71,0-1.21-0.09-1.51-0.17c-0.86-2.68-2.87-13.45-4.12-23.9l-0.11-0.95l-0.34-2.83l-2.85,0.2l-0.95,0.07
				c-0.81,0.06-1.68,0.07-2.41,0.08l-0.83,0.01l-2.49,0.03l-0.43,2.45l-0.14,0.82c-2.83,16.16-3.84,20.89-4.18,22.27
				c-0.24,0.06-0.63,0.11-1.19,0.11c-0.33,0-0.67-0.02-1.01-0.06c-2.19-0.24-3.83-1.03-4.48-1.51c0.16-6.78,5.56-61.72,7.5-73.45
				c0.75-0.46,2.84-1.37,6.68-1.75C359.37,252.74,360.46,252.68,361.55,252.68 M363.39,294.17c9.17,0,14.94-6.99,15.72-13.56
				c0.93-7.96-4.4-14.4-12.96-15.66l-0.97-0.14l-2.92-0.43l-0.48,2.91l-0.16,0.97c-0.96,5.81-2.26,13.54-3.56,21.19l-0.18,1.06
				l-0.54,3.17l3.2,0.32l1.07,0.1C362.21,294.14,362.81,294.17,363.39,294.17 M361.55,249.68c-1.21,0-2.39,0.06-3.53,0.17
				c-5.96,0.58-9.02,2.43-9.22,3.5c-1.7,9.37-8.07,72.19-7.65,75.52c0.19,1.52,3.58,3.27,7.13,3.66c0.44,0.05,0.9,0.08,1.35,0.08
				c1.77,0,3.45-0.42,3.88-1.63c0.34-0.95,1.39-5.75,4.45-23.24l0.14-0.82l0.83-0.01c0.78-0.01,1.7-0.03,2.59-0.09l0.95-0.07
				l0.11,0.95c1.28,10.76,3.61,23.56,4.6,25.37c0.47,0.86,2.07,1.34,4,1.34c0.93,0,1.93-0.11,2.92-0.35c2.11-0.5,4.39-1.66,4.46-3.4
				c0.09-2.58-0.29-12.19-1.09-27.8l-0.03-0.6l0.51-0.31c11.97-7.29,16.65-21.74,11.38-35.15v0
				C384.32,254.06,371.94,249.68,361.55,249.68L361.55,249.68z M363.39,291.17c-0.48,0-0.98-0.02-1.48-0.07l-1.07-0.1l0.18-1.06
				c1.36-8.02,2.64-15.65,3.56-21.2l0.16-0.97l0.97,0.14c6.97,1.03,11.16,5.99,10.42,12.35v0
				C375.48,285.83,370.59,291.17,363.39,291.17L363.39,291.17z"/>
			<path class="st18" d="M429.07,242.77c2.71,0,4.71,0.75,5.9,1.38c3.54,1.87,4.8,4.77,4.7,5.91c-0.38,3.96-2.05,4.74-5.73,6.47
				c-4.65,2.18-11.67,5.47-14.13,17.85c-1.9,9.56,2.97,17.97,7.68,26.11c4.12,7.11,8.37,14.46,9.37,23.48
				c0.81,7.32-2.83,15.41-9.27,20.62c-4.28,3.46-9.32,5.29-14.57,5.29c-2.47,0-4.96-0.41-7.39-1.22
				c-14.48-4.8-15.67-11.45-15.31-16.04c0.2-2.49,1.07-3.2,1.36-3.43c0.84-0.67,2.28-1.02,4.29-1.02c1.67,0,3.46,0.24,4.91,0.44
				l0.75,0.1c0.94,0.12,1.86,0.19,2.75,0.19c3.45,0,6.47-0.97,8.73-2.8c2.51-2.03,4.04-5.03,4.31-8.44
				c0.38-4.77-2.38-9.51-5.89-15.54c-3.19-5.47-7.16-12.29-9.09-20.27c-2.1-8.7-0.16-22.51,12.25-32.81
				C419.67,244.88,424.51,242.77,429.07,242.77 M429.07,239.77c-4.22,0-9.79,1.53-16.31,6.95c-13.47,11.19-15.55,26.29-13.25,35.83
				c2.04,8.42,6.13,15.44,9.42,21.09c3.24,5.56,5.8,9.95,5.49,13.78c-0.21,2.59-1.35,4.85-3.21,6.35c-1.74,1.41-4.08,2.13-6.85,2.13
				c-0.75,0-1.54-0.05-2.35-0.16l-0.74-0.1c-1.54-0.21-3.42-0.46-5.31-0.46c-2.29,0-4.56,0.38-6.18,1.68
				c-1.46,1.18-2.27,2.99-2.47,5.53c-0.69,8.77,4.98,15.02,17.36,19.12c2.76,0.92,5.56,1.37,8.33,1.37c5.88,0,11.6-2.03,16.46-5.96
				c7.22-5.84,11.29-14.98,10.37-23.28c-1.07-9.65-5.49-17.27-9.76-24.65c-4.64-8.01-9.02-15.57-7.34-24.02
				c2.17-10.89,7.88-13.57,12.47-15.72c3.86-1.81,6.9-3.24,7.44-8.9c0.24-2.55-1.88-6.52-6.28-8.85
				C434.96,240.75,432.45,239.77,429.07,239.77L429.07,239.77z"/>
			<path class="st18" d="M211.64,249.68c6.36,0,14.95,1.26,19.72,7.28c8.43,10.64,6.04,26.99-5.44,37.23l-0.53,0.47l-1.59,1.41
				l0.81,1.96l0.27,0.66c4.48,10.91,7.56,19.57,8.24,23.08c-0.34,0.34-1.04,0.9-2.26,1.55c-1.47,0.77-2.71,1.17-3.55,1.35
				c-5.17-8.62-8.63-16.34-10.06-20.48l-0.31-0.91l-0.94-2.72l-2.76,0.83l-0.92,0.28c-0.66,0.2-1.33,0.38-1.99,0.54l-0.74,0.18
				l-2.22,0.53l-0.08,2.28l-0.03,0.76c-0.41,11.28-0.66,18.66-0.72,20.99c-0.35,0.2-1.11,0.5-2.3,0.68
				c-0.67,0.1-1.37,0.15-2.07,0.15c-1.72,0-3.04-0.29-3.76-0.53c-0.91-8.28-2.95-61.23-3.15-74.71c1.86-0.83,6.17-2.19,12.27-2.69
				C208.9,249.74,210.29,249.68,211.64,249.68 M207.65,294.84l4.39-1.95l1.46-0.65c5.45-2.42,12.41-8.01,14.06-15.77
				c0.74-3.47-0.11-6.83-2.4-9.46c-2.54-2.93-6.54-4.54-11.26-4.54c-0.49,0-0.99,0.02-1.49,0.05l-0.9,0.06l-2.69,0.18l-0.1,2.7
				l-0.03,0.9c-0.15,3.9-0.31,8.32-0.48,12.96l-0.39,10.72L207.65,294.84 M211.64,246.68c-1.6,0-3.08,0.08-4.37,0.18
				c-8.69,0.71-14.37,3.11-15.04,4.05c0.02,9.34,2.43,75,3.39,78.01c0.29,0.89,3.14,1.86,6.53,1.86c0.81,0,1.66-0.06,2.51-0.18
				c1.44-0.21,4.81-0.95,4.85-3.19c0.04-1.73,0.3-9.31,0.73-21.35l0.03-0.76l0.74-0.18c0.72-0.17,1.45-0.37,2.17-0.58l0.92-0.28
				l0.31,0.91c1.56,4.51,5.43,13.11,11.22,22.5c0.1,0.09,0.35,0.14,0.7,0.14c1.13,0,3.4-0.51,5.93-1.85
				c2.86-1.51,4.04-3.03,3.95-3.87c-0.56-4.7-6.17-18.73-8.55-24.54l-0.27-0.66l0.53-0.47c12.66-11.3,15.21-29.45,5.79-41.33
				C228.22,248.17,218.74,246.68,211.64,246.68L211.64,246.68z M210.82,290.15l0.39-10.72c0.17-4.64,0.33-9.07,0.48-12.96l0.03-0.9
				l0.9-0.06c0.44-0.03,0.87-0.04,1.29-0.04c3.85,0,7.01,1.22,8.99,3.51c1.65,1.91,2.27,4.35,1.73,6.87
				c-1.33,6.24-7.15,11.35-12.34,13.66L210.82,290.15L210.82,290.15z"/>
			<path class="st18" d="M88.87,246.45c5.06,0,9.77,0.96,13.98,2.87c7.12,3.21,10.15,9.11,11.43,13.49
				c2.38,8.13,0.8,17.87-4.12,25.41l-0.7,1.08l-2.1,3.23l3.65,1.25l1.22,0.42c8.41,2.88,18.7,14.32,15.24,30.75
				c-2.96,14.06-18.68,22.6-32.69,23.78c-1.1,0.09-2.19,0.14-3.24,0.14c-7.16,0-12.48-2.23-13.9-5.83
				c-3.26-8.29-17.13-74.56-17.31-85.16c0.27-0.58,1.6-2.32,5.06-4.55C72.05,249.02,80.83,246.45,88.87,246.45 M81.36,288.96l0,0.02
				l0.04,0.12c0.51,1.49,2,3.08,4.65,3.08c0.8,0,1.65-0.14,2.61-0.43c6.44-1.94,17.21-10.35,14.22-21.88
				c-1.27-4.92-4.75-8.37-9.78-9.71c-1.58-0.42-3.32-0.64-5.15-0.64c-3.96,0-9.3,1.1-11.66,3.51c-1.22,1.24-1.67,2.92-1.22,4.48
				C75.62,269.45,80.48,286.29,81.36,288.96 M95.01,333.68L95.01,333.68c0.98,0,2.1-0.18,3.34-0.54c7.03-2.02,16.29-9.26,12.98-20.9
				c-1.69-5.98-6.88-9.55-13.86-9.55c-1.78,0-3.57,0.24-5.33,0.7c-6.1,1.61-7.58,5-6.94,7.64c0.04,0.17,4.17,17.13,4.82,19.33
				C90.63,332.44,92.49,333.68,95.01,333.68 M88.87,243.45c-9.37,0-18.54,3.1-25.11,7.34c-4.44,2.87-6.44,5.51-6.44,6.85
				c-0.02,10.45,14.05,77.68,17.52,86.48c1.92,4.89,8.18,7.73,16.69,7.73c1.13,0,2.29-0.05,3.49-0.15
				c15.11-1.27,32.11-10.66,35.37-26.15c3.83-18.22-7.75-30.97-17.21-34.21l-1.22-0.42l0.7-1.08c5.38-8.26,7.1-18.95,4.48-27.89
				c-1.46-4.99-4.91-11.7-13.08-15.38C99.22,244.39,94.02,243.45,88.87,243.45L88.87,243.45z M86.05,289.18
				c-1.22,0-1.65-0.61-1.81-1.06l0,0c-0.75-2.21-6.08-20.66-6.3-21.44c-0.09-0.3-0.14-0.91,0.49-1.55c1.31-1.33,5.34-2.61,9.52-2.61
				c1.48,0,2.98,0.16,4.38,0.53c4,1.07,6.65,3.68,7.65,7.57c2.48,9.56-6.71,16.61-12.18,18.26
				C87.09,289.1,86.51,289.18,86.05,289.18L86.05,289.18z M95.01,330.68c-1.15,0-1.88-0.39-2.11-1.16
				c-0.61-2.07-4.61-18.5-4.78-19.2c-0.39-1.6,1.44-3.14,4.79-4.03c1.47-0.39,3.03-0.6,4.56-0.6c4.83,0,9.48,2.1,10.98,7.37
				c2.71,9.53-5.05,15.51-10.93,17.2C96.54,330.54,95.7,330.68,95.01,330.68C95.01,330.68,95.01,330.68,95.01,330.68L95.01,330.68z"
				/>
		</g>
		<g id="Details_6_">
			<path class="st4" d="M90.22,239.04c-0.48-3.03-0.96-6.05-1.44-9.08c-0.14-0.86-0.57-1.42-1.15-1.75c-0.05-0.8-0.41-1.6-0.95-2.22
				c0.16-0.23,0.3-0.47,0.47-0.7c1.84-2.65-1.65-5.34-4.1-4.1c-7.89,3.98-11.59,12.08-10.37,20.69c0.54,3.81,6.32,2.19,5.79-1.6
				c-0.02-0.13-0.02-0.26-0.04-0.38c1.01,0.08,2.05-0.33,2.7-1.44c0.32-0.55,0.66-1.08,0.99-1.62c0.55,0.47,1.2,0.77,1.85,0.83
				l0.47,2.97C85.04,244.43,90.82,242.82,90.22,239.04z"/>
			<path class="st4" d="M416.96,221.18c-0.05-0.03-0.11-0.03-0.16-0.06c-0.95,3.27-2.18,6.45-3.11,9.74
				c-0.46,1.63-1.7,2.39-3.01,2.46c-0.3,1.9-0.6,3.81-0.91,5.71c-0.34,2.13,1.34,3.57,2.99,3.75c0.29-0.48,0.73-0.92,1.4-1.24
				c0.43-0.21,0.87-0.39,1.31-0.57c0.03-0.11,0.07-0.22,0.09-0.34l0.47-2.97c0.65-0.05,1.31-0.36,1.85-0.83
				c0.33,0.54,0.67,1.07,0.99,1.62c0.27,0.46,0.61,0.79,0.99,1.03c2.1-0.6,4.24-1.1,6.37-1.69c0.46-0.13,0.88-0.15,1.28-0.12
				C427.2,230.71,423.55,224.51,416.96,221.18z"/>
			<path class="st4" d="M145.62,330.36c-0.21,0.39-0.46,0.8-0.76,1.23c-0.06-0.29-0.16-0.57-0.32-0.86
				c-0.68-1.16-2.42-1.88-3.71-1.29c-0.41-0.79-1.14-1.44-1.93-1.66c-1.73-0.48-3.06,0.59-3.69,2.1c-0.51,1.21-1.08,2.41-1.53,3.64
				c-2.29-1.94-6.36,0.79-4.52,3.78c2.35,3.81,6.6,5.72,11.03,4.88c4.87-0.91,8.38-4.57,10.62-8.8
				C152.61,329.98,147.43,326.94,145.62,330.36z"/>
			<path class="st4" d="M191.75,326.93c-0.23-0.24-0.53-0.42-0.85-0.57c-0.63-1.38-2.01-2.02-3.53-1.72c-1.53,0.3-3.06,0.6-4.59,0.9
				c-0.53,0.1-0.99,0.41-1.36,0.81c-1.97-2.93-6.79,0-5,3.3c3.1,5.72,11.18,6.71,15.33,1.52
				C192.77,329.9,192.98,328.18,191.75,326.93z"/>
			<path class="st4" d="M223.8,330.84c-0.4-1.47-2.16-2.65-3.69-2.1c-1.75,0.64-3.36,0.57-4.97-0.4c-3.31-2-6.33,3.19-3.03,5.18
				c2.87,1.73,6.43,2.16,9.6,1.01C223.23,333.97,224.25,332.49,223.8,330.84z"/>
			<path class="st4" d="M250.36,327.66c-0.9-1.54-2.61-1.72-4.1-1.08c-1.62,0.7-3.43,0.28-4.86-0.61c-3.28-2.06-6.29,3.13-3.03,5.18
				c3.39,2.13,7.31,2.16,10.91,0.61C250.77,331.12,251.11,328.93,250.36,327.66z"/>
			<path class="st4" d="M301.66,328.79c0.01-0.3-0.01-0.61-0.11-0.92c-0.47-1.47-2.1-2.64-3.69-2.1c-1.48,0.51-2.95,1.02-4.43,1.53
				c-0.8,0.28-1.49,0.87-1.88,1.6c-2.38-1.55-6.13,1.11-4.27,3.95c1.48,2.26,3.89,3.53,6.62,3.46c2.43-0.07,6.17-1.36,7.73-3.32
				C302.64,331.72,302.85,330.04,301.66,328.79z"/>
			<path class="st4" d="M335.83,332.78c-1.01,0.3-2.22,0.24-2.97-0.36c-1.27-1.01-3.01-1.24-4.24,0c-1.05,1.05-1.27,3.23,0,4.24
				c2.53,2.01,5.64,2.86,8.81,1.91C341.12,337.46,339.55,331.67,335.83,332.78z"/>
			<path class="st4" d="M383.24,340.7c-1.94,0.23-3.54-0.47-4.47-2.28c-1.76-3.44-6.94-0.4-5.18,3.03c1.77,3.46,5.77,5.71,9.65,5.25
				c1.61-0.19,3-1.24,3-3C386.24,342.23,384.86,340.51,383.24,340.7z"/>
			<path class="st4" d="M240.91,156.6c-4.67-6.75-14.08-5.49-17.09,2.03c-1.21,3.03,2.74,4.6,4.85,2.87
				c-0.78,3.53-0.87,7.56,1.61,9.56c2.98,2.41,7.25-1.81,4.24-4.24c-0.38-0.31-0.13-2.68-0.02-3.5c0.18-1.35,0.57-2.65,1.06-3.91
				c0.06,0.07,0.12,0.14,0.18,0.22C237.91,162.78,243.11,159.79,240.91,156.6z"/>
			<path class="st4" d="M148.27,154.14c-4.22-1.28-8.97,0.66-11.07,4.55c-1.83,3.4,3.35,6.43,5.18,3.03
				c0.87-1.61,2.55-2.32,4.29-1.79C150.37,161.05,151.96,155.26,148.27,154.14z"/>
			<path class="st4" d="M204.72,151.01c-4.82-1.4-10.92-1.06-12.62,4.6c-1.11,3.71,4.68,5.29,5.79,1.6
				c0.58-1.94,4.02-0.77,5.24-0.41C206.84,157.87,208.43,152.08,204.72,151.01z"/>
			<path class="st4" d="M313.91,152.8c-5.41-3.62-12.56-1.81-15.72,3.83c-1.89,3.37,3.29,6.4,5.18,3.03
				c0.79-1.42,1.94-2.28,3.22-2.59c0.43,1.41,1.73,2.54,3.56,2.04c1.01-0.28,2.02-0.55,3.04-0.83
				C315.79,157.57,315.99,154.19,313.91,152.8z"/>
			<path class="st4" d="M381.66,158.64c-3.16-5.72-9.84-7.5-15.61-4.71c-3.48,1.68-0.44,6.85,3.03,5.18c2.9-1.4,5.91-0.15,7.4,2.56
				C378.34,165.05,383.53,162.02,381.66,158.64z"/>
		</g>
		<g id="Stroke_9_">
			<path class="st4" d="M297.82,294.71c-1.96-12.21-11.04-17.67-19.17-17.67c-4.35,0-8.37,1.49-11.18,4.12
				c0.05-0.2,0.11-0.4,0.17-0.61c1.79-6.24,4.42-10.03,6.1-10.91c0.36-0.19,0.59-0.22,0.77-0.22c0.94,0,2.43,0.81,3.88,1.6
				c2.31,1.25,4.92,2.67,8.13,2.67c3.45,0,6.56-1.66,9.22-4.95c2.77-3.41,3.05-8.53,0.75-13.38c-2.82-5.92-10.12-12.25-22.13-12.25
				c-1.34,0-2.74,0.08-4.14,0.24c-10.04,1.14-17.84,6.52-23.19,15.99c-3.91,6.92-6.49,16-7.89,27.75
				c-1.58,13.29-0.4,24.24,3.51,32.53c4.52,9.58,12.72,15.49,23.72,17.1c1.88,0.27,3.72,0.41,5.49,0.41
				c8.14,0,14.94-2.94,19.68-8.49C297.99,321.09,300.16,309.35,297.82,294.71z M245.1,287.81c2.89-24.26,11.33-36.85,25.8-38.49
				c10.74-1.22,17.3,3.35,19.87,8.03c1.59,2.91,1.72,5.89,0.32,7.61c-3.45,4.25-6.27,2.72-9.84,0.79c-3-1.62-6.4-3.47-10.29-1.42
				c-3.61,1.89-7.01,7.34-9.09,14.57c-2.52,8.79-3.31,21.44,2.05,30.6c1.87,3.19,5.07,4.77,8.14,4.02c3.49-0.85,5.73-4.39,5.99-9.45
				c0.36-7.14-3.17-9.11-5.74-10.55c-1.75-0.98-2.66-1.55-2.75-2.95c-0.27-4.5,3.81-7.01,7.71-7.44
				c5.96-0.65,13.09,2.98,14.62,12.54c2.15,13.42,0.08,24.09-5.8,30.06c-4.41,4.47-10.93,6.23-18.85,5.07
				C245.09,327.56,242.98,305.63,245.1,287.81z M269.38,298.75c2.13,1.19,2.85,1.59,2.67,5c-0.14,2.75-1.06,3.94-1.49,3.94
				c-0.26,0-0.89-0.26-1.46-1.23c-1.58-2.7-2.58-6.16-2.98-9.99C267.24,297.56,268.49,298.25,269.38,298.75z"/>
			<path class="st4" d="M171.9,171.4l-0.95,0.05l0.01,0.95c0.06,6.7,0.13,17.24,0.18,28.06l0.01,1.41l1.33-0.47
				c3.66-1.3,12.32-5.37,13.75-15.07c0.71-4.83-0.14-8.6-2.53-11.21C181.2,172.39,177.11,171.1,171.9,171.4z M177,177.85
				c0.91,0.28,1.75,0.72,2.34,1.4c1.32,1.53,1.25,4.22,0.95,6.21c-0.39,2.66-1.64,4.71-3.2,6.28
				C177.07,186.81,177.04,182.02,177,177.85z"/>
			<path class="st4" d="M286,172.4l-1.16-0.32l-0.1,1.2c-0.97,11.31-1.85,20.99-2.7,29.6l-0.11,1.16l1.16-0.06
				c8.63-0.46,14.99-6.33,15.46-14.27C298.95,183.15,295.19,174.94,286,172.4z M292.56,189.34c-0.17,2.85-1.58,5.22-3.84,6.75
				c0.42-4.48,0.86-9.25,1.31-14.37C291.92,183.99,292.71,186.85,292.56,189.34z"/>
			<path class="st4" d="M205.75,165.8c-5.32-10.03-17.36-15.78-33.04-15.78c-7.35,0-26.54,2.01-27.13,11.19
				c-0.56,8.92,0.05,26.78,1.64,47.77c0.05,0.64,0.1,1.27,0.15,1.91c0.91,1.79,1.06,3.67,1.53,5.62c0.58,2.42,0.99,4.79,1.09,7.28
				c0.05,1.27-0.47,2.17-1.25,2.72c0.2,2.01,0.4,3.92,0.6,5.67c1.26,11.16,1.85,12.06,2.55,13.11c2.06,3.13,6.17,3.49,9.09,3.49
				c2.35,0,14.17-0.34,15.79-6.95c0.14-0.57,0.3-1.21,0.38-8.1c1.73,6.49,3,9.94,4.75,11.8c0.97,1.03,2.77,2.25,5.88,2.25
				c5.31,0,17.38-4.59,17.38-12.14c0-1.02,0-4.03-5.96-25.6C210.44,197.16,213.13,179.72,205.75,165.8z M186.26,241.42
				c-1.48-1.57-3.51-9.79-5.14-16.39c-0.61-2.47-1.19-4.81-1.74-6.86l-0.29-1.06l-1.03,0.38c-1.94,0.72-3.98,1.3-6.06,1.72
				l-0.8,0.16v0.82c0,17.07-0.19,19.83-0.27,20.21c-0.17,0.48-2.38,1.64-6.72,2.17c-4.18,0.51-6.93-0.02-7.29-0.56
				c-1.53-3.01-6.63-60.09-5.34-80.42c0.06-0.98,3.03-2.98,9.44-4.36c3.14-0.68,7.31-1.19,11.8-1.19c10.35,0,22.42,2.74,27.64,12.58
				c6.57,12.38,3.54,28.2-7.55,39.36l-0.41,0.41l0.16,0.56c4.07,14.55,6.49,24.53,6.49,26.69c0,1.41-2.68,3.54-6.24,4.95
				C189.56,241.91,186.85,242.05,186.26,241.42z"/>
			<path class="st4" d="M280.3,150.72c-11.18,0-18.86,4.17-19.57,10.61c-0.94,8.51-6.04,69.51-5.52,77.34
				c0.4,6.12,5.96,10.24,13.84,10.24c4.85,0,10.92-1.76,13.42-6.68c0.62-1.21,1.4-3.42,2.75-13.59
				c11.89-2.23,22.41-9.84,28.68-20.91c6.66-11.77,7.24-25.08,1.59-36.52C308.04,156.1,292.42,150.72,280.3,150.72z M308.68,204.77
				c-6,10.59-16.47,17.49-28.02,18.44l-0.81,0.07l-0.1,0.81c-1.38,11.2-2.19,14.57-2.63,15.43c-1.45,2.86-6.88,3.94-10.84,3.13
				c-1.47-0.3-4.89-1.33-5.09-4.36c-0.47-7.02,4.38-66.17,5.5-76.28c0.23-2.09,3.43-3.98,8.14-4.81c1.64-0.29,3.48-0.45,5.45-0.45
				c10.06,0,23.44,4.21,29.83,17.14C314.87,183.49,314.35,194.76,308.68,204.77z"/>
			<path class="st4" d="M415.21,171.06c-5.56-9.44-13.85-15.06-23.34-15.83c-0.67-0.05-1.34-0.08-2-0.08
				c-9.47,0-17.68,5.34-23.75,15.45c-5.01,8.34-8.26,19.65-9.17,31.83c-1.99,26.58,9.15,48.45,25.91,50.86
				c1.13,0.16,2.28,0.25,3.42,0.25c9.14,0,17.83-5.12,24.46-14.41c6.54-9.16,10.45-21.38,11.32-35.32
				C422.83,191.5,420.4,179.87,415.21,171.06z M416.08,203.43c-1.05,16.86-7.19,31.42-16.43,38.94c-4.97,4.05-10.48,5.77-15.93,4.99
				c-13.38-1.92-22.51-21.46-20.79-44.48c1.21-16.3,6.71-30.13,14.72-36.98c3.68-3.15,7.79-4.75,12.21-4.75
				c0.5,0,1.01,0.02,1.52,0.06C406.88,162.46,417.5,180.61,416.08,203.43z"/>
			<path class="st4" d="M390.86,183.71c0,0-0.01,0-0.01,0c-5.46,0.02-9.12,6.45-10.31,18.12c-1.27,12.57,1.69,20.56,7.94,21.38
				c0.21,0.03,0.43,0.04,0.64,0.04c1.35,0,2.7-0.55,3.94-1.6c3.65-3.11,6.36-10.57,6.6-18.13v0c0.09-3.07,0.07-13.44-4.18-17.81
				C394.18,184.38,392.63,183.71,390.86,183.71z M393.65,203.34c-0.22,7.11-3.07,12.9-4.63,13.87c-1.91-0.67-3.35-6.55-2.52-14.77
				c0.97-9.58,3.58-12.72,4.35-12.73h0.01c0.07,0,0.1,0.01,0.1,0.01C391.83,190.04,393.92,194.56,393.65,203.34z"/>
			<path class="st4" d="M99.98,270.62c-1.01-3.88-3.65-6.5-7.65-7.57c-5.37-1.43-12.13,0.27-13.9,2.08
				c-0.63,0.64-0.57,1.24-0.49,1.55c0.23,0.78,5.56,19.24,6.3,21.44l0,0c0.15,0.45,0.59,1.06,1.81,1.06c0.46,0,1.03-0.09,1.75-0.3
				C93.27,287.23,102.46,280.18,99.98,270.62z M93.89,276.23c-1.02,2.47-3.31,4.46-5.26,5.68c-1.04-3.51-2.51-8.56-3.81-13.05
				c0.97-0.21,2.16-0.37,3.46-0.37c5.36,0,6.03,2.59,6.28,3.57C94.83,273.14,94.63,274.42,93.89,276.23z"/>
			<path class="st4" d="M92.9,306.29c-3.34,0.88-5.18,2.43-4.79,4.03c0.17,0.7,4.17,17.13,4.78,19.2c0.23,0.77,0.95,1.16,2.11,1.16
				c0.69,0,1.53-0.14,2.51-0.42c5.88-1.69,13.63-7.66,10.93-17.2C106.48,306.11,99.01,304.68,92.9,306.29z M101.81,320.48
				c-1.11,1.54-2.77,2.64-4.19,3.32c-0.81-3.21-1.93-7.76-2.91-11.77c0.77-0.18,1.72-0.32,2.73-0.32c4.38,0,5.02,2.25,5.23,2.99
				C103.31,316.94,103.04,318.78,101.81,320.48z"/>
			<path class="st4" d="M120.47,288.17c4.14-8.81,5.08-18.89,2.45-27.89c-2.56-8.76-8.38-15.56-16.37-19.16
				c-5.41-2.44-11.35-3.68-17.64-3.68c-11.41,0-20.61,3.99-25.08,6.37c-3.76,2-12.5,7.35-12.51,13.83
				c-0.02,12,14.64,80.32,17.94,88.69c2.88,7.32,11.03,11.52,22.36,11.52c9.12,0,18.93-2.77,26.92-7.61
				c9.59-5.81,15.73-13.92,17.73-23.45C139.88,309.65,131.63,294.86,120.47,288.17z M130.4,325.56
				c-3.26,15.49-20.26,24.88-35.37,26.15c-10.27,0.87-18-2.04-20.18-7.58c-3.47-8.8-17.54-76.03-17.52-86.48
				c0-1.35,1.99-3.99,6.44-6.85c6.57-4.24,15.74-7.34,25.11-7.34c5.14,0,10.35,0.94,15.21,3.13c8.16,3.68,11.62,10.39,13.08,15.38
				c2.62,8.95,0.9,19.63-4.48,27.89l-0.7,1.08l1.22,0.42C122.65,294.58,134.24,307.34,130.4,325.56z"/>
			<path class="st4" d="M254.32,150.07L254.32,150.07c-3.6,0-12.16,0.55-14.06,5.66c-0.53,1.42-3.75,11.78-7.57,24.17
				c-2.83-12-4.49-19.24-4.96-21.62c-0.99-4.95-6.09-7.9-13.65-7.9c-2.23,0-9.77,0.34-13.07,4.75c-1.37,1.83-1.8,4.11-1.17,6.27
				c0.24,0.83,0.8,2.84,1.57,5.64c3.01,10.89,9.28,33.54,13.39,46.34c0.7,2.2,0.99,4.47,0.87,6.74c-0.53,9.23-0.15,16.15,1.12,20.55
				c2.12,7.33,15.26,7.7,17.88,7.7c11.62,0,13.83-4.97,14.12-7.93c0.3-3.17-0.11-10-1.2-20.31c-0.24-2.19-0.03-4.35,0.63-6.43
				c1.66-5.3,4.76-14.82,7.77-24.02c5.68-17.39,9.16-28.12,9.7-30.48c0.46-2.04,0.01-4.04-1.27-5.64
				C262.56,151.21,259.25,150.07,254.32,150.07z M259.85,157.86c-0.52,2.27-5.11,16.34-9.56,29.95c-3.15,9.65-6.13,18.76-7.79,24.1
				c-0.9,2.88-1.2,5.86-0.87,8.87c1.02,9.64,1.45,16.42,1.2,19.1c-0.11,1.15-2.32,2.1-5.62,2.4c-6.74,0.63-14.08-1.33-14.64-3.25
				c-1.35-4.67-1.23-12.67-0.89-18.56c0.17-3-0.22-5.99-1.15-8.9c-4.07-12.68-10.32-35.25-13.32-46.1
				c-0.79-2.84-1.35-4.87-1.59-5.72c-0.09-0.3-0.12-0.71,0.42-1.24c1.33-1.31,4.75-2.09,8.09-2.09c1.65,0,3.28,0.19,4.63,0.6
				c1.26,0.39,2.83,1.13,3.09,2.45c0.99,4.97,6.65,28.78,8.51,36.6c0.19,0.84,0.9,1.42,1.76,1.45c0.85,0.01,1.6-0.5,1.85-1.32
				l0.44-1.42c2.94-9.56,10.74-34.95,11.47-36.92c0.7-1.16,9.2-2.64,12.95-1.13C260,157.18,259.9,157.64,259.85,157.86z"/>
			<path class="st4" d="M151.36,227.69c0.82-1.74,1.4-3.38,1.8-4.91c0.04-1.71,0.3-3.4,0.23-5.12c-0.09-2.19-0.7-4.29-0.57-6.5
				c-0.4-1.04-0.85-1.91-1.28-2.6c-2.65-4.23-7.19-6.81-12.16-6.88l-0.19,0c-5.75,0-9.24,3.85-12.05,6.94
				c-1.58,1.74-3.08,3.38-4.9,4.51c-0.7,0.43-1.95,0.89-3.37,0.89c-6.71,0-7.61-10.12-7.68-14.48c-0.14-8.13,2.26-11.46,3.3-12.52
				c0.78-0.79,1.6-1.19,2.44-1.19c1.25,0,2.64,0.87,3.81,2.39c3.07,3.98,7.34,6.17,12.01,6.17c5.25,0,10.66-2.87,14.1-7.5
				c3.38-4.54,4.44-10.06,2.92-15.16c-2.76-9.23-15-18.79-30.7-18.79c-5.45,0-11.04,1.12-16.61,3.32
				c-10.89,4.3-18.91,13.58-22.57,26.13c-4.7,16.1-1.46,34.63,8.46,48.34c7.24,10.01,17.87,15.53,29.94,15.53
				C132.42,246.26,146.33,238.45,151.36,227.69z M121.46,240.11c-6.62,0.62-19.08-0.22-28.25-12.89
				c-8.86-12.25-11.75-28.78-7.56-43.15c3.13-10.73,9.89-18.62,19.02-22.23c4.86-1.92,9.75-2.88,14.44-2.88
				c4.82,0,9.44,1.01,13.61,3.04c5.6,2.72,10.04,7.21,11.31,11.45c1.75,5.85-2.06,11.44-6.52,13.73c-4.48,2.3-8.97,1.32-12.02-2.63
				c-3.09-4-7.48-5.62-11.45-4.22c-5.71,2-9.02,9.22-8.85,19.31c0.2,12.14,4.49,17.02,8.05,18.97c4.22,2.31,9.14,1.48,12.14-0.37
				c2.55-1.57,4.49-3.7,6.2-5.58c2.55-2.81,4.56-5.05,7.71-4.98c2.92,0.04,5.6,1.56,7.17,4.07c2.12,3.39,1.93,8.15-0.52,13.41
				C142.28,232.94,132.22,239.09,121.46,240.11z"/>
			<path class="st4" d="M176.5,243.52L176.5,243.52c-7.58,0-16.47,2.41-16.61,9.2c-0.04,2.18,0.32,10.38,0.88,22.64
				c0.39,8.58,0.87,19.27,0.82,20.79c-0.05,1.77-1,2.24-1.54,2.24c-1,0-1.33-1.72-1.41-2.24c-0.42-2.88-0.82-7.54-1.36-13.99
				c-0.58-6.81-1.36-16.14-2.59-28.14c-0.28-2.75-2.35-7.36-13.06-7.36c-1.89,0-11.52,0.21-15.38,4.29
				c-1.25,1.32-1.89,2.99-1.79,4.71c0.02,0.44,2.87,44.64,8.31,59.24c5.01,13.47,15.09,21.19,27.66,21.19c0.84,0,1.71-0.03,2.57-0.1
				c15.59-1.23,27.18-15.12,28.17-33.78c0.75-14.2-1.96-48.93-2.37-51.7C188.42,247.9,186.31,243.52,176.5,243.52z M185.17,301.88
				c-0.83,15.57-10.14,27.13-22.65,28.12c-15,1.19-21.55-10.27-24.13-17.2c-4.59-12.33-7.55-50.48-7.94-57.48
				c-0.03-0.56,2.85-2.11,8.58-2.56c0.94-0.07,1.83-0.11,2.65-0.11c4.28,0,6.93,0.92,7.04,1.97c1.22,11.96,2.01,21.25,2.58,28.04
				c0.57,6.8,0.95,11.29,1.4,14.36c0.79,5.35,4.47,7.53,7.76,7.35c3.43-0.2,6.98-3.03,7.13-8.04c0.06-1.75-0.37-11.23-0.83-21.26
				c-0.45-9.88-0.91-20.1-0.87-22.24c0.02-1.28,3.71-2.94,8.97-3.27c4.74-0.29,7.85,0.71,8.01,1.81
				C183.25,254.01,185.89,288.36,185.17,301.88z"/>
			<path class="st4" d="M315.35,242.41L315.35,242.41c-5.73,0-15.73,0.93-18.45,7.14c-2.68,6.11-2.81,28.62-2.47,40.96
				c0.98,35.27,5.61,40.14,7.14,41.74c3.14,3.31,7.96,5.05,13.94,5.05c7.77,0,19.94-3.51,22.59-10.11
				c3.67-9.19,2.52-16.11-3.09-18.53c-1.25-0.54-2.64-0.82-4.13-0.82c-2.21,0-4.24,0.59-6.03,1.12c-0.55,0.16-1.18,0.35-1.71,0.47
				c0-0.01,0-0.01,0-0.02c-0.03-0.17-0.16-0.97-0.3-3.59c8.12-2.19,8.89-2.93,9.78-3.84c1.11-1.11,2.28-2.9,2.3-9.94
				c0.02-7.03-1.13-8.83-2.2-9.97c-1.89-1.99-4.79-2.58-9.88-2.87c0.14-3.1,0.31-5.28,0.47-6.81c0.5,0.08,1.03,0.16,1.55,0.25
				c2.34,0.38,4.99,0.81,7.38,0.81c2.17,0,3.93-0.36,5.37-1.09c3.24-1.66,5.55-4.77,6.51-8.78c0.82-3.4,0.7-8.13-1.41-11.04
				C337.29,245.07,325.02,242.41,315.35,242.41z M338.27,262.17c-0.39,1.61-1.29,3.76-3.4,4.83c-1.75,0.89-5.81,0.24-9.07-0.29
				c-4.18-0.68-7.21-1.17-7.78,0.82c-0.87,3.05-1.22,10.63-1.37,16.45l-0.02,0.99l0.99,0.03c3.93,0.12,9.88,0.31,10.69,1.15
				c0.79,1.21,0.8,10.16,0.03,11.61c-0.31,0.2-2.01,1.01-10.91,3.27l-0.78,0.2l0.02,0.8c0.13,4.41,0.32,7.27,0.56,8.51
				c0.42,2.2,1.24,3.65,2.5,4.42c1.94,1.18,4.41,0.46,6.8-0.24c2.16-0.63,4.4-1.29,6.1-0.55c2.48,1.07,1.74,6.19-0.1,10.79
				c-0.77,1.91-5.31,4.6-11.59,5.8c-6.62,1.27-12.24,0.28-15.02-2.65c-6.63-6.97-7.03-68.15-3.52-76.16
				c0.68-1.55,3.95-2.82,8.53-3.32c1.47-0.16,3-0.24,4.57-0.24c8.88,0,18.65,2.56,22.34,7.65
				C338.52,257,338.88,259.61,338.27,262.17z"/>
			<path class="st4" d="M437.76,264.68c4.22-1.98,10-4.69,10.86-13.77c0.33-3.52-1.15-7.36-4.05-10.56
				c-3.82-4.2-9.46-6.61-15.48-6.61h0c-6.71,0-13.5,2.81-20.17,8.36c-15.59,12.95-17.95,30.64-15.24,41.85
				c2.25,9.27,6.59,16.72,10.07,22.7c2.39,4.09,4.85,8.32,4.69,10.27c-0.16,2.03-1.45,2.97-4.04,2.97c-0.5,0-1.03-0.04-1.6-0.11
				l-0.72-0.1c-1.71-0.23-3.84-0.52-6.12-0.52c-8.65,0-13.98,4.65-14.62,12.74c-0.64,8.08,2.56,19.02,21.45,25.29
				c3.37,1.12,6.82,1.69,10.25,1.69c9.06,0,17.91-4.08,24.28-11.19c6.35-7.09,9.44-16.1,8.49-24.73c-1.21-10.9-6.16-19.45-10.53-27
				c-4.41-7.6-7.89-13.61-6.65-19.84C430.21,268.22,433.54,266.66,437.76,264.68z M430.09,298.98c4.27,7.38,8.69,15,9.76,24.65
				c0.92,8.31-3.15,17.44-10.37,23.28c-7.15,5.78-16.18,7.45-24.79,4.59c-12.37-4.1-18.05-10.36-17.36-19.12
				c0.2-2.54,1.01-4.35,2.47-5.53c1.62-1.3,3.89-1.68,6.18-1.68c1.88,0,3.77,0.26,5.31,0.46l0.74,0.1c3.8,0.5,6.98-0.18,9.2-1.97
				c1.86-1.51,3-3.76,3.21-6.35c0.31-3.83-2.25-8.22-5.49-13.78c-3.29-5.64-7.38-12.67-9.42-21.09c-2.3-9.53-0.22-24.64,13.25-35.83
				c11.74-9.76,20.43-6.9,23.61-5.22c4.4,2.32,6.52,6.29,6.28,8.85c-0.54,5.66-3.58,7.09-7.44,8.9c-4.59,2.15-10.3,4.83-12.47,15.72
				C421.07,283.41,425.45,290.97,430.09,298.98z"/>
			<path class="st4" d="M224.63,275.84c0.54-2.53-0.08-4.97-1.73-6.87c-2.2-2.53-5.84-3.76-10.28-3.46l-0.9,0.06l-0.03,0.9
				c-0.15,3.89-0.31,8.32-0.48,12.96l-0.39,10.72l1.46-0.65C217.47,287.19,223.3,282.08,224.63,275.84z M217.27,277.92
				c0.07-1.96,0.14-3.87,0.21-5.71c0.39,0.21,0.7,0.46,0.93,0.74c0.38,0.46,0.49,0.98,0.35,1.64
				C218.52,275.73,217.99,276.85,217.27,277.92z"/>
			<path class="st4" d="M365.72,267.91l-0.97-0.14l-0.16,0.97c-0.92,5.55-2.2,13.18-3.56,21.2l-0.18,1.06l1.07,0.1
				c0.5,0.05,1,0.07,1.48,0.07c7.2,0,12.08-5.34,12.74-10.91v0C376.88,273.9,372.69,268.94,365.72,267.91z M370.17,279.56
				c-0.16,1.37-0.83,2.75-1.95,3.8c0.42-2.47,0.82-4.88,1.2-7.15C370.01,277.02,370.34,278.11,370.17,279.56z"/>
			<path class="st4" d="M349.05,241.63c4-22.33,6.03-44.81,6.98-58.31c1.99-0.3,3.95-0.67,5.86-1.12c4.97-1.15,6.77-7.34,7.69-11.9
				c0.74-3.63,1.29-8.73,0.87-11.05c-0.59-3.22-3.37-4.97-11.02-6.91c-3.07-0.78-9.34-2.16-16.83-2.63
				c-1.95-0.12-3.98-0.18-6.04-0.18h0c-5.04,0-10.14,0.36-14.37,1.03c-5.61,0.88-9.07,2.02-10.21,5.27
				c-1.95,5.65-2.33,18.9,2.24,22.97c1.21,1.07,2.69,1.91,9.22,2.57c-1.11,11.23-3.15,34.07-3.98,57.76
				c-0.06,1.89,0.67,3.72,2.07,5.17c4.04,4.18,12.86,4.39,14.59,4.39C346.29,248.67,348.59,244.26,349.05,241.63z M329.94,176.89
				l0.11-1.04l-1.04-0.07c-9.21-0.59-10.61-1.33-10.79-1.47c-1.53-1.37-2.41-11-0.61-16.4c1.3-1.04,12.14-3,24.62-2.22
				c11.22,0.69,21.01,3.67,22.34,4.8c0.37,2.99-1.46,15.25-4.04,15.85c-3.01,0.7-6.15,1.21-9.32,1.52l-0.85,0.08l-0.05,0.85
				c-0.8,12.56-2.79,37.28-7.18,61.78c-0.25,1.42-4.3,2.54-9.92,1.94c-4.84-0.51-7.79-2.05-7.75-3.19
				C326.45,211.3,329.14,184.45,329.94,176.89z"/>
			<path class="st4" d="M238.42,251.38c-7-8.84-18.45-10.69-26.82-10.69c-7.09,0-12.78,1.3-15.54,2.07
				c-4.58,1.29-9.83,3.36-9.83,8.04c0,4.04,0.63,23.54,1.32,40.91c1.43,36.14,2.04,38.03,2.36,39.05c1.81,5.6,9.85,6.03,12.27,6.03
				c8,0,13.24-3.63,13.34-9.25c0.02-0.71,0.07-2.46,0.16-5.15c1.43,2.68,3.05,5.52,4.85,8.44c0.69,1.11,2.36,2.97,5.88,2.97
				c4.29,0,10.63-2.88,13.55-6.17c2.14-2.4,2.39-4.71,2.21-6.22c-0.52-4.44-4.23-14.4-7.69-23
				C247.24,284.92,249.12,264.88,238.42,251.38z M195.62,328.93c-0.96-3.01-3.37-68.67-3.39-78.01c0.68-0.94,6.36-3.34,15.04-4.05
				c6.98-0.57,19.7-0.26,26.44,8.24c9.42,11.88,6.87,30.04-5.79,41.33l-0.53,0.47l0.27,0.66c2.39,5.81,8,19.85,8.55,24.54
				c0.1,0.84-1.09,2.36-3.95,3.87c-3.32,1.75-6.18,2.09-6.63,1.71c-5.78-9.4-9.66-17.99-11.22-22.5l-0.31-0.91l-0.92,0.28
				c-0.72,0.22-1.45,0.41-2.17,0.58l-0.74,0.18l-0.03,0.76c-0.43,12.04-0.69,19.62-0.73,21.35c-0.04,2.24-3.41,2.97-4.85,3.19
				C200.27,331.26,195.98,330.04,195.62,328.93z"/>
			<path class="st4" d="M394.91,264.61c-5.15-13.1-17.65-20.92-33.44-20.92c-7.85,0-17.42,2.25-18.57,8.59
				c-1.42,7.83-8.34,72.22-7.7,77.33c0.75,6.13,9.06,8.99,14.43,8.99c6.79,0,8.93-3.93,9.53-5.61c0.14-0.4,0.34-0.96,0.86-3.43
				c0.63,2.92,1.29,5.28,1.91,6.4c1.55,2.82,4.93,4.44,9.27,4.44c6.31,0,13.14-3.34,13.36-9.53c0.09-2.63-0.23-11.2-0.95-25.49
				C396.23,296.14,400.89,279.81,394.91,264.61z M377.95,301.96l-0.51,0.31l0.03,0.6c0.8,15.61,1.18,25.23,1.09,27.8
				c-0.06,1.74-2.34,2.89-4.46,3.4c-3.05,0.73-6.22,0.27-6.92-0.99c-1-1.81-3.32-14.61-4.6-25.37l-0.11-0.95l-0.95,0.07
				c-0.89,0.06-1.81,0.08-2.59,0.09l-0.83,0.01l-0.14,0.82c-3.06,17.49-4.11,22.29-4.45,23.24c-0.54,1.51-3.05,1.79-5.23,1.55
				c-3.55-0.39-6.94-2.14-7.13-3.66c-0.42-3.33,5.95-66.14,7.65-75.52c0.19-1.07,3.26-2.91,9.22-3.5
				c10.94-1.07,25.71,2.73,31.31,16.95v0C394.6,280.22,389.92,294.67,377.95,301.96z"/>
		</g>
	</g>
</g>
</svg>
